<svg version="1.1" id="Layer_1" xmlns="http://www.w3.org/2000/svg" xmlns:xlink="http://www.w3.org/1999/xlink" x="0px" y="0px"
	 width="100%" viewBox="0 0 1108 662" enable-background="new 0 0 1108 662" xml:space="preserve">
<path fill="#FEFEFE" opacity="1.000000" stroke="none" 
	d="
M740.000000,663.000000 
	C493.333344,663.000000 247.166702,663.000000 1.000033,663.000000 
	C1.000022,442.333374 1.000022,221.666718 1.000011,1.000063 
	C370.333282,1.000042 739.666565,1.000042 1109.000000,1.000021 
	C1109.000000,221.666611 1109.000000,442.333221 1109.000000,662.999878 
	C986.166687,663.000000 863.333313,663.000000 740.000000,663.000000 
M776.499878,658.738892 
	C785.998047,658.746216 795.496277,658.761902 804.994446,658.759155 
	C829.825256,658.752014 854.656494,658.665771 879.486511,658.804077 
	C883.064209,658.824036 884.708984,657.764771 885.712341,654.259949 
	C887.737854,647.184753 890.295410,640.261353 892.649109,633.280640 
	C900.668884,609.495789 908.717651,585.720642 916.697327,561.922302 
	C918.009949,558.007385 919.029907,553.994324 920.431824,549.179260 
	C917.313477,549.179260 915.367554,549.179199 913.421631,549.179260 
	C773.435181,549.180603 633.448730,549.181946 493.462280,549.183350 
	C492.295715,549.183350 491.120392,549.090759 489.964203,549.200317 
	C485.881592,549.587280 485.453705,547.597900 486.643585,544.352295 
	C487.938843,540.819458 489.153931,537.256470 490.359070,533.691406 
	C497.245087,513.321167 504.188171,492.969849 510.972931,472.565948 
	C516.565247,455.748138 521.806946,438.812836 527.489929,422.026367 
	C534.434326,401.513763 541.768250,381.133270 548.766541,360.638550 
	C556.498352,337.995941 564.073425,315.299530 571.656860,292.606537 
	C579.260864,269.851807 586.804993,247.076981 594.349670,224.302460 
	C601.725220,202.038635 609.030151,179.751358 616.440918,157.499313 
	C620.519714,145.252090 625.020935,133.137985 628.783691,120.796776 
	C630.273315,115.911247 632.221436,113.932144 637.647095,113.938522 
	C770.800659,114.095093 903.954529,114.058525 1037.108276,114.052872 
	C1045.774048,114.052505 1054.445679,114.183365 1063.100342,113.865509 
	C1064.738037,113.805367 1067.191284,112.255829 1067.761353,110.802528 
	C1070.708496,103.288071 1073.265503,95.614105 1075.774780,87.935654 
	C1082.584351,67.098160 1089.314819,46.234764 1096.047119,25.372110 
	C1098.300903,18.388273 1100.465454,11.375690 1102.898071,3.654746 
	C1089.528564,3.654746 1077.230225,3.651988 1064.931885,3.655158 
	C872.617249,3.704730 680.302612,3.764989 487.987946,3.800664 
	C403.329559,3.816369 318.671143,3.808169 234.012894,3.689083 
	C230.101608,3.683581 227.808762,4.685861 226.631027,8.550192 
	C224.618820,15.152546 222.273911,21.652851 220.115356,28.211369 
	C211.852219,53.317963 203.582153,78.422333 195.367020,103.544655 
	C191.348740,115.832748 187.574280,128.201736 183.457336,140.456131 
	C178.442230,155.383926 173.107498,170.204102 168.049057,185.117645 
	C162.308929,202.040939 156.732452,219.019684 151.064957,235.967682 
	C144.102005,256.789581 137.102310,277.599152 130.150177,298.424622 
	C126.216957,310.206757 122.415642,322.033264 118.433365,333.798645 
	C111.949890,352.953613 105.291428,372.049530 98.845573,391.217041 
	C91.392654,413.379181 84.136772,435.607544 76.708237,457.777985 
	C69.915474,478.050934 62.956398,498.268127 56.161942,518.540527 
	C48.313000,541.959167 40.618984,565.429688 32.755356,588.843323 
	C25.579268,610.209839 18.231335,631.518555 11.038347,652.879395 
	C9.225252,658.263733 9.470186,658.564636 15.075602,658.576904 
	C39.072681,658.629456 63.069904,658.620056 87.067078,658.624146 
	C316.544647,658.663635 546.022217,658.701172 776.499878,658.738892 
z"/>
<path fill="#010101" opacity="1.000000" stroke="none" 
	d="
M775.999817,658.739136 
	C546.022217,658.701172 316.544647,658.663635 87.067078,658.624146 
	C63.069904,658.620056 39.072681,658.629456 15.075602,658.576904 
	C9.470186,658.564636 9.225252,658.263733 11.038347,652.879395 
	C18.231335,631.518555 25.579268,610.209839 32.755356,588.843323 
	C40.618984,565.429688 48.313000,541.959167 56.161942,518.540527 
	C62.956398,498.268127 69.915474,478.050934 76.708237,457.777985 
	C84.136772,435.607544 91.392654,413.379181 98.845573,391.217041 
	C105.291428,372.049530 111.949890,352.953613 118.433365,333.798645 
	C122.415642,322.033264 126.216957,310.206757 130.150177,298.424622 
	C137.102310,277.599152 144.102005,256.789581 151.064957,235.967682 
	C156.732452,219.019684 162.308929,202.040939 168.049057,185.117645 
	C173.107498,170.204102 178.442230,155.383926 183.457336,140.456131 
	C187.574280,128.201736 191.348740,115.832748 195.367020,103.544655 
	C203.582153,78.422333 211.852219,53.317963 220.115356,28.211369 
	C222.273911,21.652851 224.618820,15.152546 226.631027,8.550192 
	C227.808762,4.685861 230.101608,3.683581 234.012894,3.689083 
	C318.671143,3.808169 403.329559,3.816369 487.987946,3.800664 
	C680.302612,3.764989 872.617249,3.704730 1064.931885,3.655158 
	C1077.230225,3.651988 1089.528564,3.654746 1102.898071,3.654746 
	C1100.465454,11.375690 1098.300903,18.388273 1096.047119,25.372110 
	C1089.314819,46.234764 1082.584351,67.098160 1075.774780,87.935654 
	C1073.265503,95.614105 1070.708496,103.288071 1067.761353,110.802528 
	C1067.191284,112.255829 1064.738037,113.805367 1063.100342,113.865509 
	C1054.445679,114.183365 1045.774048,114.052505 1037.108276,114.052872 
	C903.954529,114.058525 770.800659,114.095093 637.647095,113.938522 
	C632.221436,113.932144 630.273315,115.911247 628.783691,120.796776 
	C625.020935,133.137985 620.519714,145.252090 616.440918,157.499313 
	C609.030151,179.751358 601.725220,202.038635 594.349670,224.302460 
	C586.804993,247.076981 579.260864,269.851807 571.656860,292.606537 
	C564.073425,315.299530 556.498352,337.995941 548.766541,360.638550 
	C541.768250,381.133270 534.434326,401.513763 527.489929,422.026367 
	C521.806946,438.812836 516.565247,455.748138 510.972931,472.565948 
	C504.188171,492.969849 497.245087,513.321167 490.359070,533.691406 
	C489.153931,537.256470 487.938843,540.819458 486.643585,544.352295 
	C485.453705,547.597900 485.881592,549.587280 489.964203,549.200317 
	C491.120392,549.090759 492.295715,549.183350 493.462280,549.183350 
	C633.448730,549.181946 773.435181,549.180603 913.421631,549.179260 
	C915.367554,549.179199 917.313477,549.179260 920.431824,549.179260 
	C919.029907,553.994324 918.009949,558.007385 916.697327,561.922302 
	C908.717651,585.720642 900.668884,609.495789 892.649109,633.280640 
	C890.295410,640.261353 887.737854,647.184753 885.712341,654.259949 
	C884.708984,657.764771 883.064209,658.824036 879.486511,658.804077 
	C854.656494,658.665771 829.825256,658.752014 804.994446,658.759155 
	C795.496277,658.761902 785.998047,658.746216 775.999817,658.739136 
M318.500122,385.781708 
	C285.673523,385.784302 252.846771,385.833710 220.020630,385.713593 
	C216.900131,385.702179 215.040787,386.532623 214.115494,389.515594 
	C212.997101,393.121094 211.761139,396.690186 210.567947,400.272339 
	C203.009399,422.964386 195.448944,445.655731 187.888519,468.347137 
	C180.432144,490.726257 172.984406,513.108276 165.510056,535.481445 
	C164.079590,539.763306 162.542984,544.009705 160.736954,549.184753 
	C163.677872,549.184753 165.625107,549.184814 167.572327,549.184753 
	C233.225601,549.183655 298.878937,549.144470 364.531952,549.269775 
	C368.774445,549.277893 370.641998,547.799622 371.867981,543.853271 
	C376.206512,529.887573 380.750061,515.982117 385.444397,502.131195 
	C394.733307,474.723480 404.215881,447.381409 413.532928,419.983154 
	C417.321045,408.843628 420.886200,397.628296 424.771118,385.781708 
	C389.086212,385.781708 354.293213,385.781708 318.500122,385.781708 
M399.723907,277.430878 
	C408.385315,277.428009 417.052246,277.245544 425.705475,277.510406 
	C429.182343,277.616821 430.717072,276.380737 431.770477,273.187042 
	C439.655090,249.283310 447.671265,225.422882 455.678864,201.559799 
	C463.707245,177.634857 471.796356,153.730270 479.804352,129.798538 
	C481.519226,124.673782 483.000122,119.470734 484.676483,114.018509 
	C480.490326,114.018509 477.682281,114.018730 474.874237,114.018486 
	C420.559570,114.013771 366.244812,114.054672 311.930542,113.906250 
	C308.119843,113.895844 306.099976,115.181282 304.967621,118.554306 
	C299.756897,134.075943 294.484680,149.577072 289.316803,165.112930 
	C282.853363,184.543610 276.536194,204.023071 270.032349,223.440079 
	C264.610229,239.627640 258.990265,255.748856 253.501022,271.914093 
	C251.946808,276.491089 252.897675,277.912201 257.366577,277.898285 
	C304.513702,277.751678 351.660767,277.592926 399.723907,277.430878 
M506.991394,612.661865 
	C506.115173,612.261047 505.238953,611.860229 504.366119,611.460938 
	C507.820343,607.050171 507.880371,602.106812 505.817902,597.341492 
	C503.761658,592.590515 498.996063,592.597717 494.658844,592.504944 
	C488.845337,592.380493 483.025635,592.552429 477.211578,592.441528 
	C474.328735,592.386597 473.057831,593.276489 473.096497,596.433716 
	C473.244934,608.562805 473.248596,620.696045 473.097839,632.825073 
	C473.055328,636.245972 474.480682,637.061218 477.580475,636.987244 
	C484.389862,636.824707 491.207031,637.016846 498.018616,636.909851 
	C502.882629,636.833496 508.506775,636.873047 510.024231,631.151001 
	C511.637817,625.066406 513.064636,618.418213 506.991394,612.661865 
M571.423340,636.935791 
	C576.138611,637.772339 577.660950,635.660706 577.136658,631.141907 
	C576.818909,628.403564 577.078064,625.598267 577.078064,622.891968 
	C587.975525,621.818604 587.974670,621.818604 588.065613,631.681519 
	C588.074829,632.678955 587.816101,633.808594 588.199097,634.637878 
	C588.612488,635.532837 589.518616,636.577881 590.408447,636.816589 
	C599.077332,639.141296 602.078064,636.860657 602.078064,628.138184 
	C602.078064,626.641113 601.986450,625.137329 602.094604,623.648132 
	C602.468323,618.504150 600.847229,614.505432 595.751770,612.520081 
	C602.067139,601.382385 597.236389,592.603699 584.874023,592.484680 
	C579.052490,592.428650 573.226807,592.591370 567.409180,592.430908 
	C564.183289,592.341980 563.046204,593.497742 563.095459,596.784363 
	C563.259888,607.760742 563.157166,618.741028 563.157654,629.719849 
	C563.157959,636.932678 563.158630,636.932678 571.423340,636.935791 
M832.157837,632.169678 
	C831.680786,635.865479 833.255676,637.394531 836.981567,636.970825 
	C838.787109,636.765503 840.643005,636.826294 842.462280,636.958374 
	C845.321777,637.166077 846.308716,635.852783 846.203430,633.119446 
	C846.071899,629.706909 846.171875,626.285400 846.171875,622.963989 
	C857.016113,621.731567 857.016235,621.731567 857.064026,631.335571 
	C857.067383,632.000610 856.794128,632.877747 857.116943,633.291443 
	C858.137085,634.598328 859.278320,636.647339 860.551819,636.787964 
	C871.065613,637.949341 871.077820,637.838440 871.077759,627.561584 
	C871.077759,626.065247 870.952698,624.556458 871.100525,623.074890 
	C871.610291,617.966553 869.450867,614.459656 864.857361,612.536560 
	C868.021912,607.613586 867.952576,602.514465 865.918335,597.614746 
	C863.835632,592.598572 858.947327,592.573425 854.417603,592.499268 
	C848.600098,592.403992 842.774170,592.632385 836.962952,592.418823 
	C833.281250,592.283508 832.020081,593.589478 832.085815,597.318359 
	C832.284912,608.620361 832.157837,619.928101 832.157837,632.169678 
M555.301514,605.680054 
	C555.038757,597.327881 552.825745,593.551025 545.437622,592.611084 
	C538.976135,591.789062 532.194702,592.072876 525.735474,593.056396 
	C519.761353,593.966003 517.288940,597.621277 517.135864,603.554565 
	C516.943115,611.024353 516.976990,618.505432 517.133667,625.976929 
	C517.242065,631.147705 519.710388,634.714355 524.916748,636.230225 
	C532.284241,638.375244 539.664062,638.509094 546.998413,636.385315 
	C553.036316,634.637024 555.102234,631.858948 555.247681,625.570801 
	C555.393616,619.261902 555.293762,612.947266 555.301514,605.680054 
M824.714172,632.147827 
	C824.713989,627.816223 825.564392,623.270203 824.537659,619.197388 
	C822.363037,610.570862 819.209167,602.191162 816.456909,593.710266 
	C810.735657,593.297546 805.014587,592.881592 799.292664,592.477844 
	C798.796021,592.442810 798.168091,592.296997 797.816223,592.528992 
	C796.427979,593.444214 794.480042,594.204224 793.893433,595.531738 
	C789.105103,606.366882 785.065857,617.327637 786.167053,629.631531 
	C786.817139,636.895081 786.304077,636.635620 793.548218,637.043396 
	C798.526245,637.323730 800.803223,635.943298 799.971680,630.728333 
	C799.746399,629.315552 799.937500,627.836365 799.937500,626.332642 
	C803.779114,626.332642 807.163940,626.332642 810.512146,626.332642 
	C811.444153,637.540710 811.439209,637.429871 821.009155,637.003967 
	C823.890808,636.875732 824.925171,635.746216 824.714172,632.147827 
M692.900513,597.680054 
	C687.682739,611.507812 691.697388,618.667175 705.870728,620.789490 
	C706.857300,620.937256 707.951233,620.772217 708.827820,621.145569 
	C709.902405,621.603394 710.800659,622.475342 711.775085,623.168274 
	C710.666443,623.830444 709.584656,625.003967 708.444397,625.063904 
	C704.127502,625.290894 699.781555,625.342651 695.465698,625.107117 
	C690.824585,624.853821 691.383240,627.981628 691.509644,630.765015 
	C691.632263,633.464294 690.178223,637.189453 695.364075,636.975098 
	C700.017761,636.782715 704.685791,636.936890 709.347473,636.936157 
	C723.168030,636.933960 726.101318,633.999451 725.936462,620.343079 
	C725.928406,619.677185 725.958313,619.008911 725.912109,618.345764 
	C725.612183,614.042786 723.443787,611.093079 719.248657,610.060059 
	C715.871643,609.228516 712.355042,608.971680 708.964783,608.182861 
	C707.776978,607.906494 706.781189,606.804626 705.697754,606.079773 
	C706.859924,605.445068 707.999268,604.318115 709.188416,604.262695 
	C713.794678,604.048523 718.416809,604.175720 723.706848,604.175720 
	C723.706848,600.986755 724.057617,598.304688 723.559082,595.791016 
	C723.309204,594.530945 721.549377,592.682739 720.408264,592.634949 
	C714.263977,592.377869 708.047424,592.150757 701.964355,592.853088 
	C698.960754,593.199829 696.190674,595.568726 692.900513,597.680054 
M674.496155,625.157593 
	C671.735168,625.157593 668.974182,625.157593 665.962158,625.157593 
	C666.132141,623.006531 666.243774,621.593018 666.377380,619.902344 
	C670.513245,619.902344 674.819702,621.034180 678.022156,619.636414 
	C682.796265,617.552795 679.329468,612.853455 680.024536,608.862427 
	C675.052734,608.862427 670.772949,608.862427 666.414978,608.862427 
	C666.414978,607.093445 666.414978,605.728699 666.414978,603.943726 
	C672.672852,603.943726 678.608704,603.943726 684.752991,603.943726 
	C684.752991,600.003662 684.752991,596.495544 684.752991,592.490662 
	C674.702332,592.490662 665.060730,592.363159 655.432373,592.661499 
	C654.303955,592.696533 652.328430,595.058960 652.302124,596.373474 
	C652.059204,608.533203 652.182617,620.699829 652.138672,632.864319 
	C652.129639,635.370239 652.628845,637.010498 655.692200,636.971741 
	C664.355957,636.862000 673.024353,637.027954 681.684570,636.820496 
	C682.858459,636.792358 684.832703,635.381409 684.991516,634.381226 
	C685.444092,631.531616 685.150513,628.563416 685.150513,625.157593 
	C681.398499,625.157593 678.432434,625.157593 674.496155,625.157593 
M607.994019,621.359131 
	C608.038391,632.787109 611.786987,636.694397 623.121094,636.912598 
	C628.951660,637.024902 634.790283,636.803101 640.617310,636.986084 
	C643.952271,637.090698 645.007019,635.734497 644.890503,632.546631 
	C644.708008,627.553833 644.691162,622.543274 644.894592,617.552124 
	C645.032166,614.175598 643.555481,613.040344 640.435791,613.270691 
	C639.109863,613.368591 637.750061,613.437012 636.441223,613.258301 
	C632.194031,612.678284 630.135315,614.107666 630.778137,618.699097 
	C631.063660,620.738220 630.826355,622.850464 630.826355,624.861450 
	C622.006592,625.516418 622.006592,625.516418 622.006042,617.587341 
	C622.005981,616.920715 621.994751,616.253906 622.007690,615.587585 
	C622.235535,603.818298 619.733398,604.280273 633.165649,604.302795 
	C641.219727,604.316284 642.086060,603.405151 640.715393,595.456421 
	C640.520691,594.327148 638.756592,592.643433 637.693237,592.624146 
	C631.208313,592.506104 624.682739,592.440613 618.235474,593.046509 
	C611.577637,593.672180 608.214294,597.716980 608.033936,604.398315 
	C607.890076,609.727295 607.997925,615.063049 607.994019,621.359131 
M773.355591,636.931458 
	C780.731506,636.923279 780.675903,636.876404 780.352844,628.830261 
	C780.244080,626.119934 779.449585,624.879578 776.567078,625.026062 
	C773.086060,625.202942 769.586792,624.983337 766.098755,625.070129 
	C763.153320,625.143433 761.861938,623.921326 761.968323,620.906677 
	C762.108948,616.922546 762.143250,612.923157 761.958252,608.942688 
	C761.808899,605.728149 763.199219,604.317383 766.285950,604.309570 
	C768.446716,604.304016 770.607422,604.300232 772.768188,604.299805 
	C780.699768,604.298218 781.526978,603.424316 780.168396,595.430725 
	C779.978638,594.314392 778.224426,592.648804 777.168091,592.628845 
	C770.866577,592.509155 764.522644,592.440979 758.259827,593.046387 
	C751.449768,593.704651 748.120361,597.844055 748.019104,604.832886 
	C747.922729,611.479980 747.930908,618.130432 748.018066,624.777771 
	C748.103943,631.323425 750.961609,635.081238 757.518677,636.133728 
	C762.393677,636.916138 767.428528,636.701782 773.355591,636.931458 
z"/>
<path fill="#FEFEFE" opacity="1.000000" stroke="none" 
	d="
M319.000153,385.781708 
	C354.293213,385.781708 389.086212,385.781708 424.771118,385.781708 
	C420.886200,397.628296 417.321045,408.843628 413.532928,419.983154 
	C404.215881,447.381409 394.733307,474.723480 385.444397,502.131195 
	C380.750061,515.982117 376.206512,529.887573 371.867981,543.853271 
	C370.641998,547.799622 368.774445,549.277893 364.531952,549.269775 
	C298.878937,549.144470 233.225601,549.183655 167.572327,549.184753 
	C165.625107,549.184814 163.677872,549.184753 160.736954,549.184753 
	C162.542984,544.009705 164.079590,539.763306 165.510056,535.481445 
	C172.984406,513.108276 180.432144,490.726257 187.888519,468.347137 
	C195.448944,445.655731 203.009399,422.964386 210.567947,400.272339 
	C211.761139,396.690186 212.997101,393.121094 214.115494,389.515594 
	C215.040787,386.532623 216.900131,385.702179 220.020630,385.713593 
	C252.846771,385.833710 285.673523,385.784302 319.000153,385.781708 
z"/>
<path fill="#FDFDFD" opacity="1.000000" stroke="none" 
	d="
M399.265869,277.434204 
	C351.660767,277.592926 304.513702,277.751678 257.366577,277.898285 
	C252.897675,277.912201 251.946808,276.491089 253.501022,271.914093 
	C258.990265,255.748856 264.610229,239.627640 270.032349,223.440079 
	C276.536194,204.023071 282.853363,184.543610 289.316803,165.112930 
	C294.484680,149.577072 299.756897,134.075943 304.967621,118.554306 
	C306.099976,115.181282 308.119843,113.895844 311.930542,113.906250 
	C366.244812,114.054672 420.559570,114.013771 474.874237,114.018486 
	C477.682281,114.018730 480.490326,114.018509 484.676483,114.018509 
	C483.000122,119.470734 481.519226,124.673782 479.804352,129.798538 
	C471.796356,153.730270 463.707245,177.634857 455.678864,201.559799 
	C447.671265,225.422882 439.655090,249.283310 431.770477,273.187042 
	C430.717072,276.380737 429.182343,277.616821 425.705475,277.510406 
	C417.052246,277.245544 408.385315,277.428009 399.265869,277.434204 
z"/>
<path fill="#C4D5D4" opacity="1.000000" stroke="none" 
	d="
M507.324280,612.823364 
	C513.064636,618.418213 511.637817,625.066406 510.024231,631.151001 
	C508.506775,636.873047 502.882629,636.833496 498.018616,636.909851 
	C491.207031,637.016846 484.389862,636.824707 477.580475,636.987244 
	C474.480682,637.061218 473.055328,636.245972 473.097839,632.825073 
	C473.248596,620.696045 473.244934,608.562805 473.096497,596.433716 
	C473.057831,593.276489 474.328735,592.386597 477.211578,592.441528 
	C483.025635,592.552429 488.845337,592.380493 494.658844,592.504944 
	C498.996063,592.597717 503.761658,592.590515 505.817902,597.341492 
	C507.880371,602.106812 507.820343,607.050171 504.366119,611.460938 
	C505.238953,611.860229 506.115173,612.261047 507.324280,612.823364 
M487.809265,619.156311 
	C487.493927,621.453064 487.178619,623.749817 486.829163,626.295105 
	C489.797028,626.295105 492.050934,626.682007 494.064911,626.153870 
	C495.327057,625.822998 497.177216,624.007812 497.068115,623.052246 
	C496.906342,621.635925 495.492767,619.805725 494.149170,619.227905 
	C492.607330,618.564758 490.560150,619.076416 487.809265,619.156311 
M488.549866,602.981201 
	C487.880707,605.076721 487.211517,607.172302 486.247925,610.189880 
	C490.270966,609.094238 494.154785,611.575989 494.700165,606.657532 
	C495.161865,602.493713 492.110504,602.900024 488.549866,602.981201 
z"/>
<path fill="#C4D5D4" opacity="1.000000" stroke="none" 
	d="
M570.958557,636.935791 
	C563.158630,636.932678 563.157959,636.932678 563.157654,629.719849 
	C563.157166,618.741028 563.259888,607.760742 563.095459,596.784363 
	C563.046204,593.497742 564.183289,592.341980 567.409180,592.430908 
	C573.226807,592.591370 579.052490,592.428650 584.874023,592.484680 
	C597.236389,592.603699 602.067139,601.382385 595.751770,612.520081 
	C600.847229,614.505432 602.468323,618.504150 602.094604,623.648132 
	C601.986450,625.137329 602.078064,626.641113 602.078064,628.138184 
	C602.078064,636.860657 599.077332,639.141296 590.408447,636.816589 
	C589.518616,636.577881 588.612488,635.532837 588.199097,634.637878 
	C587.816101,633.808594 588.074829,632.678955 588.065613,631.681519 
	C587.974670,621.818604 587.975525,621.818604 577.078064,622.891968 
	C577.078064,625.598267 576.818909,628.403564 577.136658,631.141907 
	C577.660950,635.660706 576.138611,637.772339 570.958557,636.935791 
M579.479675,603.638000 
	C574.376221,604.975342 578.124268,608.605713 576.787048,611.884094 
	C580.137756,610.939026 583.753296,613.312866 584.487244,608.438721 
	C584.966553,605.255554 583.979553,603.209595 579.479675,603.638000 
z"/>
<path fill="#C5D5D4" opacity="1.000000" stroke="none" 
	d="
M832.157837,631.701660 
	C832.157837,619.928101 832.284912,608.620361 832.085815,597.318359 
	C832.020081,593.589478 833.281250,592.283508 836.962952,592.418823 
	C842.774170,592.632385 848.600098,592.403992 854.417603,592.499268 
	C858.947327,592.573425 863.835632,592.598572 865.918335,597.614746 
	C867.952576,602.514465 868.021912,607.613586 864.857361,612.536560 
	C869.450867,614.459656 871.610291,617.966553 871.100525,623.074890 
	C870.952698,624.556458 871.077759,626.065247 871.077759,627.561584 
	C871.077820,637.838440 871.065613,637.949341 860.551819,636.787964 
	C859.278320,636.647339 858.137085,634.598328 857.116943,633.291443 
	C856.794128,632.877747 857.067383,632.000610 857.064026,631.335571 
	C857.016235,621.731567 857.016113,621.731567 846.171875,622.963989 
	C846.171875,626.285400 846.071899,629.706909 846.203430,633.119446 
	C846.308716,635.852783 845.321777,637.166077 842.462280,636.958374 
	C840.643005,636.826294 838.787109,636.765503 836.981567,636.970825 
	C833.255676,637.394531 831.680786,635.865479 832.157837,631.701660 
M850.887451,603.667542 
	C849.344238,603.667542 847.800964,603.667542 846.429321,603.667542 
	C846.429321,606.717651 846.429321,608.955261 846.429321,612.112366 
	C849.008057,611.388367 852.225647,611.361755 852.829224,610.092346 
	C853.574402,608.525085 852.146179,605.924500 850.887451,603.667542 
z"/>
<path fill="#C5D6D5" opacity="1.000000" stroke="none" 
	d="
M555.301514,606.157593 
	C555.293762,612.947266 555.393616,619.261902 555.247681,625.570801 
	C555.102234,631.858948 553.036316,634.637024 546.998413,636.385315 
	C539.664062,638.509094 532.284241,638.375244 524.916748,636.230225 
	C519.710388,634.714355 517.242065,631.147705 517.133667,625.976929 
	C516.976990,618.505432 516.943115,611.024353 517.135864,603.554565 
	C517.288940,597.621277 519.761353,593.966003 525.735474,593.056396 
	C532.194702,592.072876 538.976135,591.789062 545.437622,592.611084 
	C552.825745,593.551025 555.038757,597.327881 555.301514,606.157593 
M541.209717,605.632141 
	C538.489929,605.078430 535.710144,603.983398 533.083862,604.274170 
	C532.203369,604.371704 531.312805,607.966431 531.134033,610.024109 
	C530.818481,613.655640 531.224243,617.345459 530.996765,620.990173 
	C530.758545,624.807190 532.614746,625.924988 536.055542,625.995728 
	C539.697510,626.070740 541.750061,624.938354 541.596252,620.893860 
	C541.413025,616.077881 541.494995,611.251709 541.209717,605.632141 
z"/>
<path fill="#C4D4D4" opacity="1.000000" stroke="none" 
	d="
M824.713623,632.608643 
	C824.925171,635.746216 823.890808,636.875732 821.009155,637.003967 
	C811.439209,637.429871 811.444153,637.540710 810.512146,626.332642 
	C807.163940,626.332642 803.779114,626.332642 799.937500,626.332642 
	C799.937500,627.836365 799.746399,629.315552 799.971680,630.728333 
	C800.803223,635.943298 798.526245,637.323730 793.548218,637.043396 
	C786.304077,636.635620 786.817139,636.895081 786.167053,629.631531 
	C785.065857,617.327637 789.105103,606.366882 793.893433,595.531738 
	C794.480042,594.204224 796.427979,593.444214 797.816223,592.528992 
	C798.168091,592.296997 798.796021,592.442810 799.292664,592.477844 
	C805.014587,592.881592 810.735657,593.297546 816.456909,593.710266 
	C819.209167,602.191162 822.363037,610.570862 824.537659,619.197388 
	C825.564392,623.270203 824.713989,627.816223 824.713623,632.608643 
M804.679260,604.323730 
	C803.221924,607.600952 801.764587,610.878174 800.142273,614.526367 
	C804.121399,614.526367 806.943298,614.526367 810.932983,614.526367 
	C808.829163,610.614929 807.127625,607.451294 804.679260,604.323730 
z"/>
<path fill="#C4D5D4" opacity="1.000000" stroke="none" 
	d="
M693.107666,597.351318 
	C696.190674,595.568726 698.960754,593.199829 701.964355,592.853088 
	C708.047424,592.150757 714.263977,592.377869 720.408264,592.634949 
	C721.549377,592.682739 723.309204,594.530945 723.559082,595.791016 
	C724.057617,598.304688 723.706848,600.986755 723.706848,604.175720 
	C718.416809,604.175720 713.794678,604.048523 709.188416,604.262695 
	C707.999268,604.318115 706.859924,605.445068 705.697754,606.079773 
	C706.781189,606.804626 707.776978,607.906494 708.964783,608.182861 
	C712.355042,608.971680 715.871643,609.228516 719.248657,610.060059 
	C723.443787,611.093079 725.612183,614.042786 725.912109,618.345764 
	C725.958313,619.008911 725.928406,619.677185 725.936462,620.343079 
	C726.101318,633.999451 723.168030,636.933960 709.347473,636.936157 
	C704.685791,636.936890 700.017761,636.782715 695.364075,636.975098 
	C690.178223,637.189453 691.632263,633.464294 691.509644,630.765015 
	C691.383240,627.981628 690.824585,624.853821 695.465698,625.107117 
	C699.781555,625.342651 704.127502,625.290894 708.444397,625.063904 
	C709.584656,625.003967 710.666443,623.830444 711.775085,623.168274 
	C710.800659,622.475342 709.902405,621.603394 708.827820,621.145569 
	C707.951233,620.772217 706.857300,620.937256 705.870728,620.789490 
	C691.697388,618.667175 687.682739,611.507812 693.107666,597.351318 
z"/>
<path fill="#C4D5D4" opacity="1.000000" stroke="none" 
	d="
M674.981201,625.157593 
	C678.432434,625.157593 681.398499,625.157593 685.150513,625.157593 
	C685.150513,628.563416 685.444092,631.531616 684.991516,634.381226 
	C684.832703,635.381409 682.858459,636.792358 681.684570,636.820496 
	C673.024353,637.027954 664.355957,636.862000 655.692200,636.971741 
	C652.628845,637.010498 652.129639,635.370239 652.138672,632.864319 
	C652.182617,620.699829 652.059204,608.533203 652.302124,596.373474 
	C652.328430,595.058960 654.303955,592.696533 655.432373,592.661499 
	C665.060730,592.363159 674.702332,592.490662 684.752991,592.490662 
	C684.752991,596.495544 684.752991,600.003662 684.752991,603.943726 
	C678.608704,603.943726 672.672852,603.943726 666.414978,603.943726 
	C666.414978,605.728699 666.414978,607.093445 666.414978,608.862427 
	C670.772949,608.862427 675.052734,608.862427 680.024536,608.862427 
	C679.329468,612.853455 682.796265,617.552795 678.022156,619.636414 
	C674.819702,621.034180 670.513245,619.902344 666.377380,619.902344 
	C666.243774,621.593018 666.132141,623.006531 665.962158,625.157593 
	C668.974182,625.157593 671.735168,625.157593 674.981201,625.157593 
z"/>
<path fill="#C4D5D4" opacity="1.000000" stroke="none" 
	d="
M607.994019,620.877441 
	C607.997925,615.063049 607.890076,609.727295 608.033936,604.398315 
	C608.214294,597.716980 611.577637,593.672180 618.235474,593.046509 
	C624.682739,592.440613 631.208313,592.506104 637.693237,592.624146 
	C638.756592,592.643433 640.520691,594.327148 640.715393,595.456421 
	C642.086060,603.405151 641.219727,604.316284 633.165649,604.302795 
	C619.733398,604.280273 622.235535,603.818298 622.007690,615.587585 
	C621.994751,616.253906 622.005981,616.920715 622.006042,617.587341 
	C622.006592,625.516418 622.006592,625.516418 630.826355,624.861450 
	C630.826355,622.850464 631.063660,620.738220 630.778137,618.699097 
	C630.135315,614.107666 632.194031,612.678284 636.441223,613.258301 
	C637.750061,613.437012 639.109863,613.368591 640.435791,613.270691 
	C643.555481,613.040344 645.032166,614.175598 644.894592,617.552124 
	C644.691162,622.543274 644.708008,627.553833 644.890503,632.546631 
	C645.007019,635.734497 643.952271,637.090698 640.617310,636.986084 
	C634.790283,636.803101 628.951660,637.024902 623.121094,636.912598 
	C611.786987,636.694397 608.038391,632.787109 607.994019,620.877441 
z"/>
<path fill="#C6D7D6" opacity="1.000000" stroke="none" 
	d="
M772.873901,636.931458 
	C767.428528,636.701782 762.393677,636.916138 757.518677,636.133728 
	C750.961609,635.081238 748.103943,631.323425 748.018066,624.777771 
	C747.930908,618.130432 747.922729,611.479980 748.019104,604.832886 
	C748.120361,597.844055 751.449768,593.704651 758.259827,593.046387 
	C764.522644,592.440979 770.866577,592.509155 777.168091,592.628845 
	C778.224426,592.648804 779.978638,594.314392 780.168396,595.430725 
	C781.526978,603.424316 780.699768,604.298218 772.768188,604.299805 
	C770.607422,604.300232 768.446716,604.304016 766.285950,604.309570 
	C763.199219,604.317383 761.808899,605.728149 761.958252,608.942688 
	C762.143250,612.923157 762.108948,616.922546 761.968323,620.906677 
	C761.861938,623.921326 763.153320,625.143433 766.098755,625.070129 
	C769.586792,624.983337 773.086060,625.202942 776.567078,625.026062 
	C779.449585,624.879578 780.244080,626.119934 780.352844,628.830261 
	C780.675903,636.876404 780.731506,636.923279 772.873901,636.931458 
z"/>
<path fill="#050606" opacity="1.000000" stroke="none" 
	d="
M488.270874,619.117065 
	C490.560150,619.076416 492.607330,618.564758 494.149170,619.227905 
	C495.492767,619.805725 496.906342,621.635925 497.068115,623.052246 
	C497.177216,624.007812 495.327057,625.822998 494.064911,626.153870 
	C492.050934,626.682007 489.797028,626.295105 486.829163,626.295105 
	C487.178619,623.749817 487.493927,621.453064 488.270874,619.117065 
z"/>
<path fill="#101111" opacity="1.000000" stroke="none" 
	d="
M488.993958,602.976685 
	C492.110504,602.900024 495.161865,602.493713 494.700165,606.657532 
	C494.154785,611.575989 490.270966,609.094238 486.247925,610.189880 
	C487.211517,607.172302 487.880707,605.076721 488.993958,602.976685 
z"/>
<path fill="#111212" opacity="1.000000" stroke="none" 
	d="
M579.873413,603.636475 
	C583.979553,603.209595 584.966553,605.255554 584.487244,608.438721 
	C583.753296,613.312866 580.137756,610.939026 576.787048,611.884094 
	C578.124268,608.605713 574.376221,604.975342 579.873413,603.636475 
z"/>
<path fill="#131515" opacity="1.000000" stroke="none" 
	d="
M851.272339,603.718994 
	C852.146179,605.924500 853.574402,608.525085 852.829224,610.092346 
	C852.225647,611.361755 849.008057,611.388367 846.429321,612.112366 
	C846.429321,608.955261 846.429321,606.717651 846.429321,603.667542 
	C847.800964,603.667542 849.344238,603.667542 851.272339,603.718994 
z"/>
<path fill="#0C0C0C" opacity="1.000000" stroke="none" 
	d="
M541.335876,606.031067 
	C541.494995,611.251709 541.413025,616.077881 541.596252,620.893860 
	C541.750061,624.938354 539.697510,626.070740 536.055542,625.995728 
	C532.614746,625.924988 530.758545,624.807190 530.996765,620.990173 
	C531.224243,617.345459 530.818481,613.655640 531.134033,610.024109 
	C531.312805,607.966431 532.203369,604.371704 533.083862,604.274170 
	C535.710144,603.983398 538.489929,605.078430 541.335876,606.031067 
z"/>
<path fill="#111313" opacity="1.000000" stroke="none" 
	d="
M805.052612,604.305725 
	C807.127625,607.451294 808.829163,610.614929 810.932983,614.526367 
	C806.943298,614.526367 804.121399,614.526367 800.142273,614.526367 
	C801.764587,610.878174 803.221924,607.600952 805.052612,604.305725 
z"/>
</svg>