<svg version="1.1" id="Layer_1" xmlns="http://www.w3.org/2000/svg" xmlns:xlink="http://www.w3.org/1999/xlink" x="0px" y="0px"
	 width="100%" viewBox="0 0 908 712" enable-background="new 0 0 908 712" xml:space="preserve">
<path fill="#555555" opacity="1.000000" stroke="none" 
	d="
M577.000000,713.000000 
	C384.666718,713.000000 192.833450,713.000000 1.000129,713.000000 
	C1.000086,475.666809 1.000086,238.333588 1.000043,1.000288 
	C303.666443,1.000192 606.332886,1.000192 908.999512,1.000096 
	C908.999634,238.333054 908.999634,475.666107 908.999817,712.999573 
	C798.500000,713.000000 688.000000,713.000000 577.000000,713.000000 
M154.367813,658.653625 
	C203.090942,690.109985 256.631042,706.611206 314.398987,708.691223 
	C332.433868,709.340637 350.683319,707.975586 368.644958,705.895569 
	C406.410278,701.522522 441.930695,689.529968 475.407288,671.504517 
	C482.276245,667.805969 489.181885,664.175415 496.952759,660.719604 
	C499.932068,660.971069 502.907288,661.295105 505.891296,661.462585 
	C530.838745,662.862915 555.692627,662.403320 581.212830,657.522766 
	C584.205444,657.435852 587.197998,657.276123 590.190674,657.272888 
	C636.125732,657.223755 682.060791,657.180786 727.995850,657.193970 
	C730.998535,657.194885 733.133179,657.056946 734.325989,653.393066 
	C742.258118,629.028015 750.477051,604.756287 758.605042,580.455017 
	C759.468018,577.874939 760.345825,575.299927 761.536194,571.777161 
	C757.052612,571.777161 753.604614,571.777161 750.431946,571.203552 
	C751.526733,569.960266 752.566650,568.663330 753.724426,567.481689 
	C779.349609,541.327393 800.353027,511.902252 815.406555,478.493042 
	C839.754211,424.456696 850.085449,367.597717 847.835327,308.489410 
	C846.843628,282.439026 841.501587,257.039093 834.990540,231.904800 
	C843.975342,231.883743 852.960205,231.854919 861.945007,231.843475 
	C875.427429,231.826309 875.522888,231.863495 879.789001,219.133270 
	C887.425842,196.344742 894.944031,173.516418 902.475037,150.692566 
	C902.931213,149.309921 903.063965,147.820541 903.511597,145.545044 
	C897.086670,145.545044 891.141541,145.542969 885.196411,145.545364 
	C853.918152,145.557999 822.639954,145.571762 791.099365,144.970718 
	C778.580688,127.435112 764.825317,110.959084 749.042725,96.249031 
	C687.687805,39.063484 614.828430,10.366196 531.188843,9.370781 
	C487.337524,8.848897 445.068298,17.701269 404.967255,35.489151 
	C390.438477,41.933758 376.809631,50.407013 361.913452,57.940632 
	C345.969696,57.571526 330.018066,56.698078 314.084015,56.948093 
	C288.315521,57.352417 263.118225,61.949581 238.526611,69.579941 
	C153.775696,95.876740 90.265816,148.159012 48.057068,226.159286 
	C31.427132,256.890839 21.684572,289.960449 15.260594,324.236786 
	C8.370110,361.002197 5.930916,397.813843 11.188221,434.923859 
	C17.288094,477.981384 31.413673,518.287231 54.086548,555.433838 
	C60.130539,565.336121 67.289864,574.557556 73.897972,584.844238 
	C67.171494,604.936096 60.440147,625.026306 53.722973,645.121277 
	C52.495739,648.792664 51.326248,652.483398 49.821583,657.114807 
	C53.205235,657.114807 55.486156,657.111694 57.767071,657.115173 
	C89.407402,657.163635 121.047737,657.212952 152.985107,657.703308 
	C153.304199,657.848450 153.623291,657.993652 154.367813,658.653625 
z"/>
<path fill="#FEFEFF" opacity="1.000000" stroke="none" 
	d="
M152.688065,657.262085 
	C121.047737,657.212952 89.407402,657.163635 57.767071,657.115173 
	C55.486156,657.111694 53.205235,657.114807 49.821583,657.114807 
	C51.326248,652.483398 52.495739,648.792664 53.722973,645.121277 
	C60.440147,625.026306 67.171494,604.936096 74.189117,584.211060 
	C79.375389,568.933899 84.253906,554.284302 89.168915,539.646973 
	C101.064758,504.220184 113.002411,468.807343 124.876465,433.373260 
	C136.320618,399.222046 147.669769,365.038940 159.128357,330.892578 
	C169.263824,300.689117 179.564056,270.540833 189.659576,240.324081 
	C199.490082,210.900497 209.300659,181.468124 218.745651,151.919952 
	C220.333359,146.952957 222.638962,145.678635 227.528336,145.690369 
	C293.323792,145.848434 359.119720,145.828156 424.915527,145.823990 
	C466.224609,145.821396 507.533691,145.771667 549.318237,145.812622 
	C628.492126,145.882111 707.190491,145.884064 785.888916,145.869614 
	C787.713196,145.869278 789.537415,145.684097 791.361694,145.585144 
	C822.639954,145.571762 853.918152,145.557999 885.196411,145.545364 
	C891.141541,145.542969 897.086670,145.545044 903.511597,145.545044 
	C903.063965,147.820541 902.931213,149.309921 902.475037,150.692566 
	C894.944031,173.516418 887.425842,196.344742 879.789001,219.133270 
	C875.522888,231.863495 875.427429,231.826309 861.945007,231.843475 
	C852.960205,231.854919 843.975342,231.883743 834.062866,231.939484 
	C761.364014,231.962601 689.592834,231.949280 617.821655,231.953278 
	C616.498108,231.953339 615.174500,232.159851 613.404785,232.155975 
	C588.301270,231.989075 563.643494,231.987442 538.986938,231.822754 
	C535.663208,231.800537 534.726013,233.756775 533.894958,236.217438 
	C526.625061,257.742401 519.322998,279.256531 512.094177,300.795319 
	C501.475647,332.434021 490.924164,364.095245 480.317657,395.738007 
	C464.234650,443.719116 448.098419,491.682465 432.057068,539.677490 
	C428.590759,550.048462 425.430908,560.521790 422.174561,571.189331 
	C422.436218,571.734253 422.726501,571.843689 423.551392,571.795776 
	C477.287170,571.842285 530.561584,571.853760 583.835938,571.849487 
	C585.160767,571.849365 586.485596,571.673950 588.281738,571.676453 
	C594.748169,571.820068 600.743408,571.912109 606.738464,571.907898 
	C654.544495,571.874634 702.350525,571.823120 750.156555,571.777161 
	C753.604614,571.777161 757.052612,571.777161 761.536194,571.777161 
	C760.345825,575.299927 759.468018,577.874939 758.605042,580.455017 
	C750.477051,604.756287 742.258118,629.028015 734.325989,653.393066 
	C733.133179,657.056946 730.998535,657.194885 727.995850,657.193970 
	C682.060791,657.180786 636.125732,657.223755 590.190674,657.272888 
	C587.197998,657.276123 584.205444,657.435852 580.293945,657.421753 
	C551.860657,657.327026 524.346252,657.333435 496.376190,657.298706 
	C423.954712,657.218201 351.988922,657.167847 280.023132,657.143555 
	C238.043686,657.129333 196.064224,657.156860 153.730637,657.117920 
	C153.147003,657.134155 152.917526,657.198120 152.688065,657.262085 
M277.500000,571.863770 
	C293.998688,571.862549 310.498047,571.783447 326.995483,571.927246 
	C330.200104,571.955139 331.851837,570.854431 332.828278,567.860840 
	C335.401886,559.970581 338.215485,552.159058 340.860535,544.291626 
	C348.691406,521.000000 356.507690,497.703400 364.286804,474.394470 
	C367.581909,464.521118 370.769928,454.612061 374.134979,444.326965 
	C372.210724,444.175079 370.923492,443.985016 369.636200,443.984650 
	C318.140198,443.970367 266.644073,444.009277 215.148331,443.895447 
	C211.588547,443.887573 210.159714,445.331421 209.217163,448.435089 
	C207.291580,454.775513 205.121658,461.042328 203.016891,467.327606 
	C193.433884,495.944305 183.830505,524.554260 174.254333,553.173218 
	C172.279251,559.075928 170.389038,565.007019 168.153732,571.863647 
	C204.966599,571.863647 240.733292,571.863647 277.500000,571.863770 
M389.525848,326.959991 
	C400.059174,295.460419 410.592468,263.960876 421.192688,232.261292 
	C419.615387,231.929260 419.142426,231.742340 418.669617,231.742584 
	C375.029938,231.765640 331.389954,231.878448 287.750946,231.726898 
	C283.208923,231.711136 281.431061,233.410431 280.095428,237.420914 
	C267.097229,276.449951 253.929901,315.422638 240.853699,354.425781 
	C240.354248,355.915558 240.290604,357.551422 239.962311,359.481293 
	C241.807159,359.650513 243.095901,359.873230 244.384399,359.871765 
	C287.691193,359.822540 330.998016,359.708466 374.304626,359.769135 
	C377.681732,359.773865 378.991730,358.382080 379.922546,355.535980 
	C382.964539,346.234772 386.144836,336.978760 389.525848,326.959991 
M505.724091,640.090088 
	C507.851257,640.090088 509.978455,640.090088 512.746948,640.090088 
	C512.132568,633.163269 515.552734,626.023010 508.232361,621.046936 
	C508.549713,620.162231 508.950562,619.277893 509.186249,618.351501 
	C511.277618,610.131592 508.149506,605.878723 499.695953,605.489014 
	C497.536224,605.389404 495.368347,605.463928 493.204193,605.463684 
	C482.272369,605.462463 482.272400,605.463074 482.272400,616.494385 
	C482.272400,624.253967 482.272369,632.013550 482.272369,639.799194 
	C486.314209,639.799194 489.572662,639.799194 493.277283,639.799194 
	C493.277283,636.099060 493.277283,632.683960 493.277283,629.318665 
	C501.534088,628.645203 501.580292,628.643982 501.780914,636.384705 
	C501.836945,638.546143 501.785461,640.510742 505.724091,640.090088 
M694.833496,640.085022 
	C697.474365,640.085022 700.115234,640.085022 703.213989,640.085022 
	C703.213989,636.268188 703.213989,632.841797 703.213989,628.935181 
	C706.139893,629.101929 710.281494,628.510925 710.714294,629.516296 
	C712.058411,632.638977 711.994507,636.367737 712.461304,639.747803 
	C715.940308,639.747803 719.186584,639.747803 722.975342,639.747803 
	C722.035034,633.012451 725.873352,625.692383 718.274231,621.032349 
	C722.366638,610.744141 718.966064,605.600891 708.115051,605.468018 
	C704.287231,605.421143 700.447632,605.638550 696.633179,605.407898 
	C693.278442,605.204956 692.343567,606.569397 692.403564,609.760681 
	C692.569275,618.579590 692.402466,627.404419 692.526855,636.224670 
	C692.544800,637.499329 693.442078,638.761597 694.833496,640.085022 
M438.795654,638.588928 
	C443.612366,632.746216 442.737671,624.191956 436.903931,620.088318 
	C439.810883,613.089172 438.606873,606.833618 433.578094,606.285828 
	C426.588074,605.524414 419.453033,606.094299 411.990540,606.094299 
	C411.990540,616.242798 411.984894,626.197998 411.998322,636.153198 
	C411.999847,637.275513 412.109039,638.397766 412.223633,640.567749 
	C421.045135,640.023804 429.558502,639.498901 438.795654,638.588928 
M449.321472,638.194641 
	C455.650787,641.769653 462.348755,641.490845 469.129486,640.014893 
	C473.815826,638.994934 476.221191,636.078003 476.186005,631.199768 
	C476.147675,625.889343 476.248840,620.577148 476.160461,615.267883 
	C476.061615,609.328613 474.126404,606.396362 468.339264,605.593262 
	C463.506500,604.922607 458.442444,605.195984 453.565155,605.769043 
	C448.521667,606.361633 446.332367,610.008911 446.290710,614.929749 
	C446.245728,620.240112 446.042084,625.567200 446.394043,630.854553 
	C446.548798,633.179138 447.907227,635.423584 449.321472,638.194641 
M684.289612,617.120056 
	C683.173096,614.176575 682.221558,611.153564 680.860107,608.328125 
	C680.305115,607.176208 678.914978,605.744751 677.811768,605.660583 
	C673.680237,605.345642 669.501526,605.389404 665.360962,605.639099 
	C664.341797,605.700562 662.968872,606.841492 662.489502,607.837769 
	C657.649048,617.898438 655.088806,628.388611 657.193665,639.753479 
	C660.315247,639.753479 663.532410,639.753479 666.875549,639.753479 
	C667.035461,637.014587 667.176941,634.592224 667.319519,632.150574 
	C670.230408,632.150574 672.800964,632.150574 675.465576,632.150574 
	C675.641357,634.868591 675.798279,637.295044 675.958130,639.765808 
	C679.611084,639.765808 682.840759,639.765808 687.351196,639.765808 
	C686.408875,632.139648 685.524963,624.985840 684.289612,617.120056 
M607.545898,621.045715 
	C602.884094,619.522034 598.222229,617.998291 593.560425,616.474609 
	C593.670837,615.935791 593.781250,615.396912 593.891724,614.858032 
	C597.309448,614.858032 600.771790,615.174011 604.122925,614.701538 
	C605.451660,614.514221 607.267395,612.752930 607.591858,611.403076 
	C608.604980,607.188477 607.137146,604.721680 602.173340,605.399963 
	C599.721497,605.734924 597.185974,605.436340 594.688721,605.462280 
	C584.669739,605.566162 582.196167,608.097534 582.459351,617.946350 
	C582.628662,624.283569 584.200806,626.063843 590.569092,627.097412 
	C592.539612,627.417175 594.557129,627.552917 596.468689,628.079407 
	C597.234924,628.290405 597.773560,629.327454 599.414490,631.016418 
	C592.999573,631.016418 588.083984,631.016418 582.819092,631.016418 
	C582.819092,634.273254 582.819092,636.999573 582.819092,640.028992 
	C589.283081,640.028992 595.498535,640.595032 601.524292,639.772095 
	C604.228943,639.402649 608.124451,636.636597 608.697876,634.280884 
	C609.652405,630.360046 608.366333,625.893799 607.545898,621.045715 
M577.261719,606.314636 
	C568.933777,605.933411 560.605896,605.552246 552.179688,605.166504 
	C552.179688,617.427490 552.179688,628.510315 552.179688,639.807007 
	C560.671326,639.807007 568.887695,639.807007 577.042603,639.807007 
	C578.768188,631.519836 578.423889,631.049316 570.902954,631.048157 
	C568.278381,631.047729 565.653870,631.048035 563.029297,631.048035 
	C562.771851,630.521851 562.514343,629.995667 562.256836,629.469482 
	C563.402954,628.653320 564.448303,627.539551 565.724426,627.107422 
	C566.919312,626.702759 568.373718,626.892212 569.687744,627.045044 
	C573.034424,627.434509 574.004761,625.942383 573.945496,622.730164 
	C573.890320,619.734131 573.367493,618.201782 569.844421,618.116699 
	C567.528198,618.060730 564.177063,620.259216 562.799866,616.229248 
	C565.328979,615.730652 567.848694,614.867432 570.388916,614.802185 
	C577.899780,614.609314 577.902954,614.732605 577.261719,606.314636 
M542.592346,614.068604 
	C542.722961,611.454895 542.853516,608.841248 543.000549,605.899231 
	C536.756470,605.899231 530.978577,605.661621 525.230225,605.972229 
	C520.380371,606.234375 517.643860,609.381348 517.401550,614.104004 
	C517.103760,619.908630 517.143677,625.746094 517.366821,631.556763 
	C517.531189,635.838074 519.963013,639.231628 524.212036,639.544312 
	C531.389771,640.072632 538.634583,639.689270 545.754272,639.689270 
	C545.754272,633.665039 545.754272,628.067017 545.754272,622.318848 
	C542.137939,622.318848 538.789062,622.318848 535.270874,622.318848 
	C535.112610,625.460632 534.974060,628.210510 534.779114,632.079712 
	C532.164917,630.918884 528.688782,630.194580 528.609436,629.199402 
	C528.248840,624.675476 528.782898,620.069153 529.239075,615.516907 
	C529.268738,615.221191 531.339539,615.020020 532.470093,614.965820 
	C535.617249,614.814819 538.769287,614.764404 542.592346,614.068604 
M638.696899,640.086182 
	C642.958252,640.086182 647.219604,640.086182 651.357178,640.086182 
	C652.655640,631.550720 652.435242,631.073914 647.586731,630.987061 
	C637.692566,630.809937 637.692627,630.809875 637.722107,620.804260 
	C637.724548,619.972168 637.782715,619.135742 637.718140,618.308838 
	C637.511047,615.655579 638.818420,614.814941 641.321716,614.912903 
	C644.733276,615.046387 648.153931,614.946167 651.735474,614.946167 
	C651.735474,611.481323 651.735474,608.864929 651.735474,605.875061 
	C645.942322,605.875061 640.319458,605.539124 634.756104,605.970642 
	C629.321899,606.392151 626.927002,609.337891 626.725891,614.915283 
	C626.564087,619.402893 626.663818,623.900696 626.680664,628.393860 
	C626.713501,637.126160 629.051514,639.580933 638.696899,640.086182 
z"/>
<path fill="#6F87C5" opacity="1.000000" stroke="none" 
	d="
M548.842773,145.743073 
	C507.533691,145.771667 466.224609,145.821396 424.915527,145.823990 
	C359.119720,145.828156 293.323792,145.848434 227.528336,145.690369 
	C222.638962,145.678635 220.333359,146.952957 218.745651,151.919952 
	C209.300659,181.468124 199.490082,210.900497 189.659576,240.324081 
	C179.564056,270.540833 169.263824,300.689117 159.128357,330.892578 
	C147.669769,365.038940 136.320618,399.222046 124.876465,433.373260 
	C113.002411,468.807343 101.064758,504.220184 89.168915,539.646973 
	C84.253906,554.284302 79.375389,568.933899 74.208694,583.834717 
	C67.289864,574.557556 60.130539,565.336121 54.086548,555.433838 
	C31.413673,518.287231 17.288094,477.981384 11.188221,434.923859 
	C5.930916,397.813843 8.370110,361.002197 15.260594,324.236786 
	C21.684572,289.960449 31.427132,256.890839 48.057068,226.159286 
	C90.265816,148.159012 153.775696,95.876740 238.526611,69.579941 
	C263.118225,61.949581 288.315521,57.352417 314.084015,56.948093 
	C330.018066,56.698078 345.969696,57.571526 362.779602,57.970894 
	C369.716858,58.959576 375.794617,59.877701 381.858002,60.882675 
	C440.824188,70.655930 492.676300,95.550789 537.864990,134.492477 
	C541.819397,137.900208 545.197144,141.977036 548.842773,145.743073 
z"/>
<path fill="#A7BEDE" opacity="1.000000" stroke="none" 
	d="
M750.294250,571.490356 
	C702.350525,571.823120 654.544495,571.874634 606.738464,571.907898 
	C600.743408,571.912109 594.748169,571.820068 588.388428,571.367004 
	C603.526672,547.733215 616.847717,523.297729 625.446960,496.703400 
	C640.114441,451.342102 649.357605,404.976746 645.907959,356.982239 
	C644.661621,339.642548 642.242126,322.302948 639.052063,305.206970 
	C634.296997,279.724030 624.638733,255.760742 613.850952,232.270050 
	C615.174500,232.159851 616.498108,231.953339 617.821655,231.953278 
	C689.592834,231.949280 761.364014,231.962601 833.606079,232.026703 
	C841.501587,257.039093 846.843628,282.439026 847.835327,308.489410 
	C850.085449,367.597717 839.754211,424.456696 815.406555,478.493042 
	C800.353027,511.902252 779.349609,541.327393 753.724426,567.481689 
	C752.566650,568.663330 751.526733,569.960266 750.294250,571.490356 
z"/>
<path fill="#A7BEDE" opacity="1.000000" stroke="none" 
	d="
M549.318237,145.812622 
	C545.197144,141.977036 541.819397,137.900208 537.864990,134.492477 
	C492.676300,95.550789 440.824188,70.655930 381.858002,60.882675 
	C375.794617,59.877701 369.716858,58.959576 363.207947,57.977882 
	C376.809631,50.407013 390.438477,41.933758 404.967255,35.489151 
	C445.068298,17.701269 487.337524,8.848897 531.188843,9.370781 
	C614.828430,10.366196 687.687805,39.063484 749.042725,96.249031 
	C764.825317,110.959084 778.580688,127.435112 791.230530,145.277924 
	C789.537415,145.684097 787.713196,145.869278 785.888916,145.869614 
	C707.190491,145.884064 628.492126,145.882111 549.318237,145.812622 
z"/>
<path fill="#6F87C5" opacity="1.000000" stroke="none" 
	d="
M154.084778,657.165649 
	C196.064224,657.156860 238.043686,657.129333 280.023132,657.143555 
	C351.988922,657.167847 423.954712,657.218201 496.365479,657.573120 
	C496.563873,658.763550 496.317261,659.638550 496.070618,660.513489 
	C489.181885,664.175415 482.276245,667.805969 475.407288,671.504517 
	C441.930695,689.529968 406.410278,701.522522 368.644958,705.895569 
	C350.683319,707.975586 332.433868,709.340637 314.398987,708.691223 
	C256.631042,706.611206 203.090942,690.109985 154.195587,658.153687 
	C154.023346,657.653687 154.084778,657.165649 154.084778,657.165649 
z"/>
<path fill="#A4B4D5" opacity="1.000000" stroke="none" 
	d="
M496.511688,660.616577 
	C496.317261,659.638550 496.563873,658.763550 496.821167,657.614197 
	C524.346252,657.333435 551.860657,657.327026 579.847534,657.462585 
	C555.692627,662.403320 530.838745,662.862915 505.891296,661.462585 
	C502.907288,661.295105 499.932068,660.971069 496.511688,660.616577 
z"/>
<path fill="#A4B4D5" opacity="1.000000" stroke="none" 
	d="
M153.730637,657.117920 
	C154.084778,657.165649 154.023346,657.653687 153.982864,657.896240 
	C153.623291,657.993652 153.304199,657.848450 152.836578,657.482666 
	C152.917526,657.198120 153.147003,657.134155 153.730637,657.117920 
z"/>
<path fill="#6F87C5" opacity="1.000000" stroke="none" 
	d="
M613.404785,232.155975 
	C624.638733,255.760742 634.296997,279.724030 639.052063,305.206970 
	C642.242126,322.302948 644.661621,339.642548 645.907959,356.982239 
	C649.357605,404.976746 640.114441,451.342102 625.446960,496.703400 
	C616.847717,523.297729 603.526672,547.733215 587.917114,571.270813 
	C586.485596,571.673950 585.160767,571.849365 583.835938,571.849487 
	C530.561584,571.853760 477.287170,571.842285 423.426392,571.623169 
	C422.635864,571.208740 422.399170,571.053528 422.129913,570.947998 
	C425.430908,560.521790 428.590759,550.048462 432.057068,539.677490 
	C448.098419,491.682465 464.234650,443.719116 480.317657,395.738007 
	C490.924164,364.095245 501.475647,332.434021 512.094177,300.795319 
	C519.322998,279.256531 526.625061,257.742401 533.894958,236.217438 
	C534.726013,233.756775 535.663208,231.800537 538.986938,231.822754 
	C563.643494,231.987442 588.301270,231.989075 613.404785,232.155975 
z"/>
<path fill="#7087C5" opacity="1.000000" stroke="none" 
	d="
M277.000000,571.863708 
	C240.733292,571.863647 204.966599,571.863647 168.153732,571.863647 
	C170.389038,565.007019 172.279251,559.075928 174.254333,553.173218 
	C183.830505,524.554260 193.433884,495.944305 203.016891,467.327606 
	C205.121658,461.042328 207.291580,454.775513 209.217163,448.435089 
	C210.159714,445.331421 211.588547,443.887573 215.148331,443.895447 
	C266.644073,444.009277 318.140198,443.970367 369.636200,443.984650 
	C370.923492,443.985016 372.210724,444.175079 374.134979,444.326965 
	C370.769928,454.612061 367.581909,464.521118 364.286804,474.394470 
	C356.507690,497.703400 348.691406,521.000000 340.860535,544.291626 
	C338.215485,552.159058 335.401886,559.970581 332.828278,567.860840 
	C331.851837,570.854431 330.200104,571.955139 326.995483,571.927246 
	C310.498047,571.783447 293.998688,571.862549 277.000000,571.863708 
z"/>
<path fill="#7088C5" opacity="1.000000" stroke="none" 
	d="
M389.398926,327.332703 
	C386.144836,336.978760 382.964539,346.234772 379.922546,355.535980 
	C378.991730,358.382080 377.681732,359.773865 374.304626,359.769135 
	C330.998016,359.708466 287.691193,359.822540 244.384399,359.871765 
	C243.095901,359.873230 241.807159,359.650513 239.962311,359.481293 
	C240.290604,357.551422 240.354248,355.915558 240.853699,354.425781 
	C253.929901,315.422638 267.097229,276.449951 280.095428,237.420914 
	C281.431061,233.410431 283.208923,231.711136 287.750946,231.726898 
	C331.389954,231.878448 375.029938,231.765640 418.669617,231.742584 
	C419.142426,231.742340 419.615387,231.929260 421.192688,232.261292 
	C410.592468,263.960876 400.059174,295.460419 389.398926,327.332703 
z"/>
<path fill="#3E2E2F" opacity="1.000000" stroke="none" 
	d="
M505.275146,640.089600 
	C501.785461,640.510742 501.836945,638.546143 501.780914,636.384705 
	C501.580292,628.643982 501.534088,628.645203 493.277283,629.318665 
	C493.277283,632.683960 493.277283,636.099060 493.277283,639.799194 
	C489.572662,639.799194 486.314209,639.799194 482.272369,639.799194 
	C482.272369,632.013550 482.272400,624.253967 482.272400,616.494385 
	C482.272400,605.463074 482.272369,605.462463 493.204193,605.463684 
	C495.368347,605.463928 497.536224,605.389404 499.695953,605.489014 
	C508.149506,605.878723 511.277618,610.131592 509.186249,618.351501 
	C508.950562,619.277893 508.549713,620.162231 508.232361,621.046936 
	C515.552734,626.023010 512.132568,633.163269 512.746948,640.090088 
	C509.978455,640.090088 507.851257,640.090088 505.275146,640.089600 
M498.060333,619.903503 
	C498.161011,618.249084 498.926575,616.096375 498.168854,615.085449 
	C497.460876,614.140869 495.136139,614.408142 493.308777,614.106689 
	C493.129639,617.767883 492.008667,621.255005 498.060333,619.903503 
z"/>
<path fill="#3F2E2F" opacity="1.000000" stroke="none" 
	d="
M694.382935,640.057312 
	C693.442078,638.761597 692.544800,637.499329 692.526855,636.224670 
	C692.402466,627.404419 692.569275,618.579590 692.403564,609.760681 
	C692.343567,606.569397 693.278442,605.204956 696.633179,605.407898 
	C700.447632,605.638550 704.287231,605.421143 708.115051,605.468018 
	C718.966064,605.600891 722.366638,610.744141 718.274231,621.032349 
	C725.873352,625.692383 722.035034,633.012451 722.975342,639.747803 
	C719.186584,639.747803 715.940308,639.747803 712.461304,639.747803 
	C711.994507,636.367737 712.058411,632.638977 710.714294,629.516296 
	C710.281494,628.510925 706.139893,629.101929 703.213989,628.935181 
	C703.213989,632.841797 703.213989,636.268188 703.213989,640.085022 
	C700.115234,640.085022 697.474365,640.085022 694.382935,640.057312 
M704.749573,620.290527 
	C707.797668,620.715637 709.971802,619.668701 708.811462,616.389343 
	C708.354004,615.096375 705.800903,614.544983 704.202026,613.655884 
	C703.843811,614.078491 703.485657,614.501099 703.127502,614.923706 
	C703.394592,616.620422 703.661682,618.317139 704.749573,620.290527 
z"/>
<path fill="#3B2B2C" opacity="1.000000" stroke="none" 
	d="
M438.433746,638.781433 
	C429.558502,639.498901 421.045135,640.023804 412.223633,640.567749 
	C412.109039,638.397766 411.999847,637.275513 411.998322,636.153198 
	C411.984894,626.197998 411.990540,616.242798 411.990540,606.094299 
	C419.453033,606.094299 426.588074,605.524414 433.578094,606.285828 
	C438.606873,606.833618 439.810883,613.089172 436.903931,620.088318 
	C442.737671,624.191956 443.612366,632.746216 438.433746,638.781433 
M427.294220,632.021301 
	C429.993713,632.303711 432.176056,630.755066 430.725342,628.553284 
	C429.561646,626.787048 426.201660,626.467834 422.773285,625.086121 
	C423.275391,629.141968 421.239166,632.639526 427.294220,632.021301 
M424.443878,618.930298 
	C426.575958,618.946106 429.435638,619.277588 428.601501,616.035706 
	C428.269165,614.744202 425.518250,614.075134 423.868347,613.122742 
	C423.518494,613.512573 423.168640,613.902466 422.818787,614.292297 
	C423.071686,615.807129 423.324554,617.321899 424.443878,618.930298 
z"/>
<path fill="#3D2C2D" opacity="1.000000" stroke="none" 
	d="
M449.020325,637.949524 
	C447.907227,635.423584 446.548798,633.179138 446.394043,630.854553 
	C446.042084,625.567200 446.245728,620.240112 446.290710,614.929749 
	C446.332367,610.008911 448.521667,606.361633 453.565155,605.769043 
	C458.442444,605.195984 463.506500,604.922607 468.339264,605.593262 
	C474.126404,606.396362 476.061615,609.328613 476.160461,615.267883 
	C476.248840,620.577148 476.147675,625.889343 476.186005,631.199768 
	C476.221191,636.078003 473.815826,638.994934 469.129486,640.014893 
	C462.348755,641.490845 455.650787,641.769653 449.020325,637.949524 
M460.729309,614.160339 
	C459.551392,615.079163 457.461456,615.905518 457.357239,616.933228 
	C456.957214,620.878174 457.001038,624.903687 457.328949,628.861938 
	C457.410919,629.851440 459.079102,631.295227 460.185364,631.469482 
	C461.647003,631.699707 464.597290,630.966980 464.625793,630.506897 
	C464.940094,625.428528 464.883789,620.319580 464.663879,615.230286 
	C464.646515,614.828491 462.658813,614.511719 460.729309,614.160339 
z"/>
<path fill="#3D2C2D" opacity="1.000000" stroke="none" 
	d="
M684.465332,617.476074 
	C685.524963,624.985840 686.408875,632.139648 687.351196,639.765808 
	C682.840759,639.765808 679.611084,639.765808 675.958130,639.765808 
	C675.798279,637.295044 675.641357,634.868591 675.465576,632.150574 
	C672.800964,632.150574 670.230408,632.150574 667.319519,632.150574 
	C667.176941,634.592224 667.035461,637.014587 666.875549,639.753479 
	C663.532410,639.753479 660.315247,639.753479 657.193665,639.753479 
	C655.088806,628.388611 657.649048,617.898438 662.489502,607.837769 
	C662.968872,606.841492 664.341797,605.700562 665.360962,605.639099 
	C669.501526,605.389404 673.680237,605.345642 677.811768,605.660583 
	C678.914978,605.744751 680.305115,607.176208 680.860107,608.328125 
	C682.221558,611.153564 683.173096,614.176575 684.465332,617.476074 
M668.179565,620.968994 
	C669.528503,625.595642 672.606384,621.891052 675.137756,622.982666 
	C674.486511,620.763733 674.191345,619.135132 673.519470,617.680420 
	C673.045593,616.654602 672.060608,615.864868 671.303772,614.969727 
	C670.585938,615.925110 669.779053,616.828552 669.181519,617.854004 
	C668.782654,618.538635 668.681946,619.396790 668.179565,620.968994 
z"/>
<path fill="#3F2F30" opacity="1.000000" stroke="none" 
	d="
M607.784851,621.351440 
	C608.366333,625.893799 609.652405,630.360046 608.697876,634.280884 
	C608.124451,636.636597 604.228943,639.402649 601.524292,639.772095 
	C595.498535,640.595032 589.283081,640.028992 582.819092,640.028992 
	C582.819092,636.999573 582.819092,634.273254 582.819092,631.016418 
	C588.083984,631.016418 592.999573,631.016418 599.414490,631.016418 
	C597.773560,629.327454 597.234924,628.290405 596.468689,628.079407 
	C594.557129,627.552917 592.539612,627.417175 590.569092,627.097412 
	C584.200806,626.063843 582.628662,624.283569 582.459351,617.946350 
	C582.196167,608.097534 584.669739,605.566162 594.688721,605.462280 
	C597.185974,605.436340 599.721497,605.734924 602.173340,605.399963 
	C607.137146,604.721680 608.604980,607.188477 607.591858,611.403076 
	C607.267395,612.752930 605.451660,614.514221 604.122925,614.701538 
	C600.771790,615.174011 597.309448,614.858032 593.891724,614.858032 
	C593.781250,615.396912 593.670837,615.935791 593.560425,616.474609 
	C598.222229,617.998291 602.884094,619.522034 607.784851,621.351440 
z"/>
<path fill="#402F30" opacity="1.000000" stroke="none" 
	d="
M577.435913,606.702515 
	C577.902954,614.732605 577.899780,614.609314 570.388916,614.802185 
	C567.848694,614.867432 565.328979,615.730652 562.799866,616.229248 
	C564.177063,620.259216 567.528198,618.060730 569.844421,618.116699 
	C573.367493,618.201782 573.890320,619.734131 573.945496,622.730164 
	C574.004761,625.942383 573.034424,627.434509 569.687744,627.045044 
	C568.373718,626.892212 566.919312,626.702759 565.724426,627.107422 
	C564.448303,627.539551 563.402954,628.653320 562.256836,629.469482 
	C562.514343,629.995667 562.771851,630.521851 563.029297,631.048035 
	C565.653870,631.048035 568.278381,631.047729 570.902954,631.048157 
	C578.423889,631.049316 578.768188,631.519836 577.042603,639.807007 
	C568.887695,639.807007 560.671326,639.807007 552.179688,639.807007 
	C552.179688,628.510315 552.179688,617.427490 552.179688,605.166504 
	C560.605896,605.552246 568.933777,605.933411 577.435913,606.702515 
z"/>
<path fill="#3D2C2D" opacity="1.000000" stroke="none" 
	d="
M542.255859,614.371460 
	C538.769287,614.764404 535.617249,614.814819 532.470093,614.965820 
	C531.339539,615.020020 529.268738,615.221191 529.239075,615.516907 
	C528.782898,620.069153 528.248840,624.675476 528.609436,629.199402 
	C528.688782,630.194580 532.164917,630.918884 534.779114,632.079712 
	C534.974060,628.210510 535.112610,625.460632 535.270874,622.318848 
	C538.789062,622.318848 542.137939,622.318848 545.754272,622.318848 
	C545.754272,628.067017 545.754272,633.665039 545.754272,639.689270 
	C538.634583,639.689270 531.389771,640.072632 524.212036,639.544312 
	C519.963013,639.231628 517.531189,635.838074 517.366821,631.556763 
	C517.143677,625.746094 517.103760,619.908630 517.401550,614.104004 
	C517.643860,609.381348 520.380371,606.234375 525.230225,605.972229 
	C530.978577,605.661621 536.756470,605.899231 543.000549,605.899231 
	C542.853516,608.841248 542.722961,611.454895 542.255859,614.371460 
z"/>
<path fill="#3D2C2D" opacity="1.000000" stroke="none" 
	d="
M638.231750,640.085938 
	C629.051514,639.580933 626.713501,637.126160 626.680664,628.393860 
	C626.663818,623.900696 626.564087,619.402893 626.725891,614.915283 
	C626.927002,609.337891 629.321899,606.392151 634.756104,605.970642 
	C640.319458,605.539124 645.942322,605.875061 651.735474,605.875061 
	C651.735474,608.864929 651.735474,611.481323 651.735474,614.946167 
	C648.153931,614.946167 644.733276,615.046387 641.321716,614.912903 
	C638.818420,614.814941 637.511047,615.655579 637.718140,618.308838 
	C637.782715,619.135742 637.724548,619.972168 637.722107,620.804260 
	C637.692627,630.809875 637.692566,630.809937 647.586731,630.987061 
	C652.435242,631.073914 652.655640,631.550720 651.357178,640.086182 
	C647.219604,640.086182 642.958252,640.086182 638.231750,640.085938 
z"/>
<path fill="#A7BEDE" opacity="1.000000" stroke="none" 
	d="
M422.174561,571.189331 
	C422.399170,571.053528 422.635864,571.208740 422.964996,571.586243 
	C422.726501,571.843689 422.436218,571.734253 422.174561,571.189331 
z"/>
<path fill="#EBEAEA" opacity="1.000000" stroke="none" 
	d="
M497.647583,620.054077 
	C492.008667,621.255005 493.129639,617.767883 493.308777,614.106689 
	C495.136139,614.408142 497.460876,614.140869 498.168854,615.085449 
	C498.926575,616.096375 498.161011,618.249084 497.647583,620.054077 
z"/>
<path fill="#ECEBEB" opacity="1.000000" stroke="none" 
	d="
M704.339233,620.152222 
	C703.661682,618.317139 703.394592,616.620422 703.127502,614.923706 
	C703.485657,614.501099 703.843811,614.078491 704.202026,613.655884 
	C705.800903,614.544983 708.354004,615.096375 708.811462,616.389343 
	C709.971802,619.668701 707.797668,620.715637 704.339233,620.152222 
z"/>
<path fill="#F2F1F1" opacity="1.000000" stroke="none" 
	d="
M426.849609,632.021362 
	C421.239166,632.639526 423.275391,629.141968 422.773285,625.086121 
	C426.201660,626.467834 429.561646,626.787048 430.725342,628.553284 
	C432.176056,630.755066 429.993713,632.303711 426.849609,632.021362 
z"/>
<path fill="#F5F4F4" opacity="1.000000" stroke="none" 
	d="
M424.010651,618.883545 
	C423.324554,617.321899 423.071686,615.807129 422.818787,614.292297 
	C423.168640,613.902466 423.518494,613.512573 423.868347,613.122742 
	C425.518250,614.075134 428.269165,614.744202 428.601501,616.035706 
	C429.435638,619.277588 426.575958,618.946106 424.010651,618.883545 
z"/>
<path fill="#F5F4F4" opacity="1.000000" stroke="none" 
	d="
M461.158081,614.157837 
	C462.658813,614.511719 464.646515,614.828491 464.663879,615.230286 
	C464.883789,620.319580 464.940094,625.428528 464.625793,630.506897 
	C464.597290,630.966980 461.647003,631.699707 460.185364,631.469482 
	C459.079102,631.295227 457.410919,629.851440 457.328949,628.861938 
	C457.001038,624.903687 456.957214,620.878174 457.357239,616.933228 
	C457.461456,615.905518 459.551392,615.079163 461.158081,614.157837 
z"/>
<path fill="#F5F4F4" opacity="1.000000" stroke="none" 
	d="
M668.313660,620.573120 
	C668.681946,619.396790 668.782654,618.538635 669.181519,617.854004 
	C669.779053,616.828552 670.585938,615.925110 671.303772,614.969727 
	C672.060608,615.864868 673.045593,616.654602 673.519470,617.680420 
	C674.191345,619.135132 674.486511,620.763733 675.137756,622.982666 
	C672.606384,621.891052 669.528503,625.595642 668.313660,620.573120 
z"/>
</svg>