<svg version="1.1" id="Layer_1" xmlns="http://www.w3.org/2000/svg" xmlns:xlink="http://www.w3.org/1999/xlink" x="0px" y="0px"
	 width="100%" viewBox="0 0 885 693" xml:space="preserve">
<path fill="#010101" opacity="1.000000" stroke="none" 
	d="
M146.893570,639.853760 
	C144.909637,639.714600 142.925690,639.454346 140.941757,639.454407 
	C111.787277,639.455078 82.632797,639.490601 53.478321,639.517212 
	C51.031845,639.519470 48.585373,639.517517 45.154648,639.517517 
	C47.902973,631.311462 50.335087,624.027527 52.781830,616.748474 
	C58.158592,600.752686 63.542747,584.759460 69.231552,568.161865 
	C76.493507,546.847412 83.474907,526.145203 90.395447,505.422760 
	C99.678284,477.626831 108.884277,449.805206 118.179489,422.013428 
	C125.523369,400.056000 132.966034,378.131683 140.339569,356.184143 
	C149.598114,328.625885 158.827179,301.057678 168.075882,273.496124 
	C175.485916,251.413895 182.979126,229.359253 190.300903,207.247818 
	C197.110504,186.683151 203.678024,166.038361 210.485809,145.473083 
	C213.015732,137.830566 213.188782,137.858597 221.075821,137.858566 
	C325.706482,137.858139 430.337128,137.866531 535.430298,137.948502 
	C538.221924,137.991257 540.550964,137.929733 542.880005,137.929337 
	C617.270813,137.916718 691.661682,137.913528 766.052490,137.884781 
	C768.199890,137.883957 770.347107,137.622009 772.494446,137.481812 
	C774.307434,137.611313 776.120483,137.854248 777.933411,137.853500 
	C811.090393,137.839874 844.247437,137.796921 877.404419,137.760574 
	C879.046753,137.758774 880.689148,137.760330 883.076294,137.760330 
	C882.029053,141.120239 881.197449,143.890656 880.303406,146.640747 
	C872.675476,170.103165 864.980408,193.543991 857.455383,217.039322 
	C856.211975,220.921875 854.319763,222.453461 850.028992,222.327606 
	C838.708923,221.995560 827.371948,222.237457 815.119385,222.174408 
	C744.232788,222.124786 674.268555,222.149689 604.304260,222.187286 
	C602.143127,222.188446 599.982178,222.321365 597.366211,222.333954 
	C573.412964,222.267105 549.913818,222.357178 526.417175,222.151398 
	C522.657654,222.118469 521.070618,223.547272 519.994995,226.811920 
	C511.423676,252.827942 502.821106,278.834015 494.116852,304.805817 
	C480.296753,346.042267 466.400940,387.253387 452.517609,428.468597 
	C439.802094,466.216919 427.049500,503.952759 414.345764,541.705017 
	C412.857880,546.126709 411.576752,550.617859 409.963470,555.842224 
	C412.781891,555.842224 414.566833,555.842224 416.351776,555.842285 
	C445.349762,555.843140 474.347748,555.864563 503.345703,555.838318 
	C526.507629,555.817322 549.669495,555.738342 573.305664,555.754395 
	C598.435181,555.843140 623.090576,555.891052 647.745911,555.874207 
	C675.896973,555.854980 704.048035,555.778137 732.199097,555.726318 
	C735.653015,555.726379 739.106873,555.726379 743.543884,555.726379 
	C741.706604,561.228882 740.165100,565.852112 738.619324,570.473877 
	C731.298950,592.361206 723.876465,614.215515 716.758240,636.168396 
	C715.610046,639.709656 713.497742,639.618408 710.766174,639.619690 
	C665.835571,639.640808 620.905029,639.692322 575.974426,639.757263 
	C572.315002,639.762573 568.655762,639.914612 564.073853,639.871643 
	C537.108276,639.773804 511.065277,639.802734 484.553497,639.793884 
	C372.998657,639.654785 261.912598,639.552246 150.826508,639.469238 
	C149.515625,639.468262 148.204559,639.719971 146.893570,639.853760 
M192.345840,462.834381 
	C182.093170,493.592468 171.840500,524.350586 161.476166,555.443726 
	C163.239960,555.652161 164.050583,555.831604 164.861237,555.831848 
	C215.823639,555.845520 266.786102,555.814636 317.748291,555.915894 
	C320.967010,555.922302 322.038635,554.393738 322.909851,551.794189 
	C332.526581,523.100525 342.205719,494.427826 351.856079,465.745453 
	C355.732513,454.224121 359.579559,442.692902 363.579712,430.748901 
	C362.008789,430.583618 361.227264,430.429565 360.445740,430.429413 
	C309.316772,430.420166 258.187775,430.453247 207.059021,430.353668 
	C203.875381,430.347443 202.771149,431.711975 201.896194,434.406799 
	C198.890488,443.664429 195.681198,452.856018 192.345840,462.834381 
M269.210327,234.587067 
	C265.640106,245.207291 262.105591,255.839676 258.492493,266.445312 
	C249.807632,291.938354 241.072632,317.414337 232.416504,342.917114 
	C231.962296,344.255280 232.051147,345.777740 231.869644,347.367920 
	C233.103180,347.599426 233.897736,347.880219 234.691757,347.878693 
	C277.834564,347.796783 320.977356,347.652435 364.120117,347.664062 
	C367.447357,347.664978 368.320862,345.930908 369.171417,343.398773 
	C380.644135,309.244843 392.177856,275.111389 403.648895,240.956909 
	C405.682159,234.903030 407.499390,228.776581 409.450836,222.574188 
	C408.293152,222.295044 407.821503,222.081482 407.349976,222.081818 
	C366.539337,222.111099 325.728729,222.162582 284.918091,222.198013 
	C272.950104,222.208405 272.950073,222.188980 269.210327,234.587067 
M434.147156,610.311584 
	C434.163788,611.474915 434.119812,612.642883 434.206940,613.800903 
	C434.763550,621.197815 438.697327,623.669006 449.658173,623.540527 
	C459.668701,623.423218 463.379211,620.780334 463.696686,613.370911 
	C463.838898,610.051819 463.724091,606.721741 463.724213,603.396606 
	C463.724579,590.667969 460.595703,587.654236 447.701904,588.118835 
	C445.723724,588.190125 443.749664,588.576599 441.789642,588.910767 
	C436.758453,589.768433 434.330170,592.935974 434.181335,597.890015 
	C434.066589,601.710510 434.151245,605.536987 434.147156,610.311584 
M421.903076,622.893372 
	C425.537872,622.334229 428.886719,621.309265 429.359802,616.922363 
	C429.924713,611.684692 431.049805,606.193848 424.894623,603.226318 
	C428.283142,595.615295 426.547424,589.787109 420.388977,589.235718 
	C414.017578,588.665283 407.555420,589.108826 401.151611,589.108826 
	C401.151611,600.600708 401.151611,611.618774 401.151611,622.932312 
	C408.075348,622.932312 414.544067,622.932312 421.903076,622.893372 
M675.828552,608.494629 
	C675.828552,613.231873 675.828552,617.969116 675.828552,622.694092 
	C679.734436,622.694092 682.672668,622.694092 686.217407,622.694092 
	C686.217407,619.075439 686.217407,615.682129 686.217407,612.181702 
	C689.263000,612.181702 691.693298,612.181702 694.433044,612.181702 
	C694.730957,615.647827 693.874695,619.941406 695.621887,621.843445 
	C697.240662,623.605713 701.643127,622.810974 704.716248,623.131409 
	C706.878723,613.027527 705.856812,607.988464 701.317566,603.990479 
	C701.724182,602.101685 702.300598,600.367065 702.440613,598.597900 
	C702.866272,593.218628 700.806091,589.519226 696.462341,589.237671 
	C689.737610,588.801758 682.963806,589.122681 675.828552,589.122681 
	C675.828552,595.572693 675.828552,601.534546 675.828552,608.494629 
M640.671936,616.344238 
	C640.671936,618.431213 640.671936,620.518188 640.671936,622.510498 
	C644.482056,622.510498 647.526489,622.510498 650.679749,622.510498 
	C650.872620,619.661865 651.037170,617.232910 651.201294,614.809265 
	C653.926331,614.809265 656.337036,614.809265 658.702332,614.809265 
	C659.820068,623.831116 660.514038,624.296265 669.434570,622.247742 
	C671.576355,611.184509 668.858765,600.927063 664.133545,591.042175 
	C663.713135,590.162659 662.570312,589.086121 661.718750,589.046265 
	C657.407776,588.844666 653.073242,588.809204 648.768677,589.071838 
	C647.826477,589.129333 646.561035,590.474121 646.144409,591.508179 
	C643.053406,599.179321 639.485229,606.773987 640.671936,616.344238 
M469.697266,597.535645 
	C469.697266,605.928589 469.697266,614.321594 469.697266,622.558716 
	C473.729645,622.558716 476.791901,622.558716 480.235474,622.558716 
	C480.235474,618.913147 480.235474,615.639709 480.235474,612.154785 
	C483.055420,612.154785 485.485321,612.154785 488.375305,612.154785 
	C488.582916,615.692749 488.782013,619.085449 488.993408,622.687988 
	C492.471985,622.687988 495.542145,622.687988 499.192444,622.687988 
	C498.491180,616.049377 502.148712,608.932190 495.270844,604.218933 
	C495.639191,602.153198 496.139954,600.395630 496.235107,598.616272 
	C496.533203,593.040161 494.615845,589.512939 490.304260,589.229431 
	C483.586365,588.787598 476.818024,589.112549 469.697235,589.112549 
	C469.697235,591.938354 469.697235,594.243713 469.697266,597.535645 
M567.920715,600.440430 
	C568.070557,607.585266 569.416870,609.062683 576.435242,610.135559 
	C578.821716,610.500366 581.165405,611.145508 583.528687,611.662537 
	C583.466736,612.285767 583.404785,612.908997 583.342834,613.532166 
	C580.853394,613.661682 578.365295,613.843445 575.874146,613.906311 
	C573.299988,613.971313 570.722839,613.920715 568.314941,613.920715 
	C568.314941,617.390686 568.314941,619.964783 568.314941,622.937073 
	C572.837158,622.937073 576.973511,622.938110 581.109802,622.936890 
	C592.547180,622.933594 594.824097,620.387756 594.198975,608.990356 
	C593.976746,604.938965 591.863098,602.904114 588.288757,602.074768 
	C585.866638,601.512756 583.334106,601.435181 580.898499,600.917419 
	C580.058594,600.738892 579.362366,599.884705 578.600464,599.339111 
	C578.731323,598.871765 578.862183,598.404419 578.993042,597.937073 
	C581.048035,597.937073 583.103027,597.937073 585.158020,597.937073 
	C587.423096,597.937073 589.688171,597.937073 592.099243,597.937073 
	C592.099243,594.592041 592.099243,591.887695 592.099243,588.920715 
	C587.352539,588.920715 583.031494,588.899597 578.710693,588.925232 
	C570.337524,588.974854 568.016479,591.272461 567.920715,600.440430 
M504.613617,594.611389 
	C504.382385,600.567261 503.989227,606.522461 503.962677,612.479248 
	C503.932404,619.276978 506.611145,622.273499 513.421875,622.775635 
	C518.554932,623.154114 523.741943,623.063416 528.886780,622.811462 
	C529.989685,622.757507 531.869080,621.164551 531.931335,620.187500 
	C532.245117,615.267822 532.075378,610.317322 532.075378,605.254272 
	C528.258911,605.254272 525.046692,605.254272 521.617249,605.254272 
	C521.376770,608.289551 521.160767,611.015442 520.959656,613.553833 
	C515.702820,615.020020 514.192139,612.861572 514.677917,608.295715 
	C514.905579,606.156128 514.802246,603.968384 514.698181,601.809692 
	C514.565002,599.046448 515.724792,597.868347 518.528503,597.978699 
	C521.931519,598.112732 525.343933,598.010559 528.700684,598.010559 
	C528.700684,594.537659 528.700684,591.952637 528.700684,589.071167 
	C522.943298,589.071167 517.424438,588.578674 512.064026,589.286316 
	C509.520020,589.622192 507.278381,592.248596 504.613617,594.611389 
M549.509949,588.920837 
	C545.751648,588.920837 541.993347,588.920837 537.923523,588.920837 
	C537.923523,599.759583 537.916260,609.891846 537.937744,620.024109 
	C537.939392,620.812317 538.142151,621.600098 538.327515,622.936890 
	C544.455139,622.936890 550.398865,622.937378 556.342529,622.936768 
	C563.233643,622.936096 563.241028,622.935486 563.056335,616.265625 
	C563.039001,615.641235 562.851196,615.021606 562.756531,614.479675 
	C548.726746,612.240601 548.726746,612.240601 548.877075,609.936890 
	C550.487183,609.936890 552.124939,609.936951 553.762756,609.936951 
	C555.380737,609.936951 556.998718,609.936890 558.491882,609.936890 
	C560.349915,601.798340 560.060242,601.408203 552.564636,601.285461 
	C552.065308,601.277283 551.465149,601.460571 551.085999,601.246521 
	C550.124512,600.703613 549.262146,599.985352 548.360107,599.337219 
	C549.236328,598.840088 550.096680,597.949890 550.991516,597.913818 
	C554.904236,597.755981 558.826904,597.845886 562.739502,597.845886 
	C562.739502,594.413208 562.739502,591.844910 562.739502,588.920837 
	C558.436218,588.920837 554.468018,588.920837 549.509949,588.920837 
M630.439453,598.007568 
	C632.181458,598.007568 633.923523,598.007568 635.682739,598.007568 
	C635.682739,594.601929 635.682739,592.023254 635.682739,589.134216 
	C629.929810,589.134216 624.464844,588.772705 619.070984,589.237305 
	C613.820007,589.689636 611.267151,592.912170 611.109436,598.316345 
	C610.964050,603.295959 610.955383,608.286499 611.100586,613.265930 
	C611.266357,618.950073 613.720276,621.808228 619.399231,622.635803 
	C622.497498,623.087341 625.694641,622.912781 628.847595,622.926941 
	C636.223816,622.960083 636.230957,622.937012 635.972290,615.740173 
	C635.955811,615.283936 635.700256,614.836426 635.407410,613.920105 
	C633.835754,613.920105 632.211609,613.922607 630.587463,613.919739 
	C620.587341,613.901978 622.008240,614.531006 621.947998,605.494690 
	C621.898132,598.010010 621.938354,598.009766 630.439453,598.007568 
z"/>
<path fill="#C7DBF6" opacity="1.000000" stroke="none" 
	d="
M534.967773,137.872742 
	C430.337128,137.866531 325.706482,137.858139 221.075821,137.858566 
	C213.188782,137.858597 213.015732,137.830566 210.485809,145.473083 
	C203.678024,166.038361 197.110504,186.683151 190.300903,207.247818 
	C182.979126,229.359253 175.485916,251.413895 168.075882,273.496124 
	C158.827179,301.057678 149.598114,328.625885 140.339569,356.184143 
	C132.966034,378.131683 125.523369,400.056000 118.179489,422.013428 
	C108.884277,449.805206 99.678284,477.626831 90.395447,505.422760 
	C83.474907,526.145203 76.493507,546.847412 69.240997,567.778564 
	C61.568962,557.193542 53.577724,546.752869 46.944416,535.510864 
	C31.051809,508.576477 19.327068,479.804749 12.742656,449.195923 
	C9.653613,434.835968 7.366342,420.197266 6.167457,405.565918 
	C4.893623,390.019928 4.287005,374.263031 5.320202,358.726685 
	C6.425786,342.101837 9.389926,325.558533 12.242490,309.100861 
	C17.954802,276.144135 28.526295,244.789429 44.315128,215.218597 
	C55.478546,194.310684 68.874603,174.998169 84.371201,157.080200 
	C102.980377,135.563278 124.233040,117.093483 147.952805,101.457199 
	C182.931793,78.398750 221.095520,63.046383 262.208557,55.212727 
	C284.931213,50.883160 307.946503,49.303932 331.075409,50.089535 
	C337.847382,50.319557 344.595428,51.253422 352.203247,51.892876 
	C357.988190,52.590126 362.940369,53.158764 367.858032,53.943558 
	C426.610413,63.319653 478.518768,87.473228 523.560059,126.318947 
	C527.645386,129.842316 531.178284,134.006271 534.967773,137.872742 
z"/>
<path fill="#475B8E" opacity="1.000000" stroke="none" 
	d="
M732.390747,555.479370 
	C704.048035,555.778137 675.896973,555.854980 647.745911,555.874207 
	C623.090576,555.891052 598.435181,555.843140 573.412598,555.439270 
	C579.645691,544.084106 586.748779,533.380554 592.748230,522.090576 
	C608.250916,492.917084 617.495117,461.634888 623.795654,429.267242 
	C632.095093,386.630280 633.652954,344.083405 625.023254,301.350983 
	C619.463013,273.817535 610.773499,247.373856 597.821106,222.392868 
	C599.982178,222.321365 602.143127,222.188446 604.304260,222.187286 
	C674.268555,222.149689 744.232788,222.124786 814.658813,222.193298 
	C817.154297,230.819366 819.256042,239.334579 821.210144,247.883530 
	C830.998230,290.702942 830.777954,333.605774 822.785095,376.691589 
	C817.492981,405.219238 810.445862,433.149750 798.530701,459.720978 
	C783.055054,494.232178 762.061768,524.940918 735.538818,551.888245 
	C734.496643,552.947144 733.565308,554.115173 732.390747,555.479370 
z"/>
<path fill="#475B8E" opacity="1.000000" stroke="none" 
	d="
M535.430298,137.948517 
	C531.178284,134.006271 527.645386,129.842316 523.560059,126.318947 
	C478.518768,87.473228 426.610413,63.319653 367.858032,53.943558 
	C362.940369,53.158764 357.988190,52.590126 352.631104,51.930027 
	C360.900146,46.833096 369.322083,41.188000 378.324982,36.711380 
	C426.173737,12.918984 476.927277,1.525703 530.291138,4.319611 
	C616.125549,8.813538 688.805115,42.394157 747.214355,105.781601 
	C756.207458,115.541252 763.941467,126.461037 772.376099,137.163055 
	C770.347107,137.622009 768.199890,137.883957 766.052490,137.884781 
	C691.661682,137.913528 617.270813,137.916718 542.880005,137.929337 
	C540.550964,137.929733 538.221924,137.991257 535.430298,137.948517 
z"/>
<path fill="#C7DBF6" opacity="1.000000" stroke="none" 
	d="
M147.006027,640.139648 
	C148.204559,639.719971 149.515625,639.468262 150.826508,639.469238 
	C261.912598,639.552246 372.998657,639.654785 484.482971,640.077393 
	C484.060242,641.182861 483.239258,641.967102 482.418274,642.751343 
	C472.767212,647.932861 463.235107,653.352051 453.442810,658.251221 
	C424.126312,672.918396 393.209869,682.343079 360.742554,687.215637 
	C339.227692,690.444458 317.634216,690.944885 296.123566,689.748047 
	C260.268646,687.753052 225.522430,679.741455 192.789825,664.731628 
	C177.141281,657.555908 162.316422,648.583984 147.006027,640.139648 
z"/>
<path fill="#59647D" opacity="1.000000" stroke="none" 
	d="
M482.826965,642.815430 
	C483.239258,641.967102 484.060242,641.182861 484.951752,640.115234 
	C511.065277,639.802734 537.108276,639.773804 563.609375,639.884521 
	C553.388794,641.337830 542.731079,643.503845 532.026672,643.766357 
	C515.780029,644.164856 499.500946,643.241394 482.826965,642.815430 
z"/>
<path fill="#C6DAF5" opacity="1.000000" stroke="none" 
	d="
M597.366211,222.333954 
	C610.773499,247.373856 619.463013,273.817535 625.023254,301.350983 
	C633.652954,344.083405 632.095093,386.630280 623.795654,429.267242 
	C617.495117,461.634888 608.250916,492.917084 592.748230,522.090576 
	C586.748779,533.380554 579.645691,544.084106 572.938354,555.369873 
	C549.669495,555.738342 526.507629,555.817322 503.345703,555.838318 
	C474.347748,555.864563 445.349762,555.843140 416.351776,555.842285 
	C414.566833,555.842224 412.781891,555.842224 409.963470,555.842224 
	C411.576752,550.617859 412.857880,546.126709 414.345764,541.705017 
	C427.049500,503.952759 439.802094,466.216919 452.517609,428.468597 
	C466.400940,387.253387 480.296753,346.042267 494.116852,304.805817 
	C502.821106,278.834015 511.423676,252.827942 519.994995,226.811920 
	C521.070618,223.547272 522.657654,222.118469 526.417175,222.151398 
	C549.913818,222.357178 573.412964,222.267105 597.366211,222.333954 
z"/>
<path fill="#C5D9F4" opacity="1.000000" stroke="none" 
	d="
M192.447662,462.453552 
	C195.681198,452.856018 198.890488,443.664429 201.896194,434.406799 
	C202.771149,431.711975 203.875381,430.347443 207.059021,430.353668 
	C258.187775,430.453247 309.316772,430.420166 360.445740,430.429413 
	C361.227264,430.429565 362.008789,430.583618 363.579712,430.748901 
	C359.579559,442.692902 355.732513,454.224121 351.856079,465.745453 
	C342.205719,494.427826 332.526581,523.100525 322.909851,551.794189 
	C322.038635,554.393738 320.967010,555.922302 317.748291,555.915894 
	C266.786102,555.814636 215.823639,555.845520 164.861237,555.831848 
	C164.050583,555.831604 163.239960,555.652161 161.476166,555.443726 
	C171.840500,524.350586 182.093170,493.592468 192.447662,462.453552 
z"/>
<path fill="#C5D9F4" opacity="1.000000" stroke="none" 
	d="
M269.268677,234.191376 
	C272.950073,222.188980 272.950104,222.208405 284.918091,222.198013 
	C325.728729,222.162582 366.539337,222.111099 407.349976,222.081818 
	C407.821503,222.081482 408.293152,222.295044 409.450836,222.574188 
	C407.499390,228.776581 405.682159,234.903030 403.648895,240.956909 
	C392.177856,275.111389 380.644135,309.244843 369.171417,343.398773 
	C368.320862,345.930908 367.447357,347.664978 364.120117,347.664062 
	C320.977356,347.652435 277.834564,347.796783 234.691757,347.878693 
	C233.897736,347.880219 233.103180,347.599426 231.869644,347.367920 
	C232.051147,345.777740 231.962296,344.255280 232.416504,342.917114 
	C241.072632,317.414337 249.807632,291.938354 258.492493,266.445312 
	C262.105591,255.839676 265.640106,245.207291 269.268677,234.191376 
z"/>
<path fill="#C2D2D1" opacity="1.000000" stroke="none" 
	d="
M434.147156,609.836182 
	C434.151245,605.536987 434.066589,601.710510 434.181335,597.890015 
	C434.330170,592.935974 436.758453,589.768433 441.789642,588.910767 
	C443.749664,588.576599 445.723724,588.190125 447.701904,588.118835 
	C460.595703,587.654236 463.724579,590.667969 463.724213,603.396606 
	C463.724091,606.721741 463.838898,610.051819 463.696686,613.370911 
	C463.379211,620.780334 459.668701,623.423218 449.658173,623.540527 
	C438.697327,623.669006 434.763550,621.197815 434.206940,613.800903 
	C434.119812,612.642883 434.163788,611.474915 434.147156,609.836182 
M444.999817,603.716431 
	C444.999908,605.873169 445.135529,608.040527 444.967316,610.184082 
	C444.733917,613.158203 445.948853,614.475586 448.928436,614.435608 
	C451.733582,614.397949 453.284515,613.436890 453.038696,610.305420 
	C452.844543,607.832092 452.936249,605.329285 453.017151,602.843323 
	C453.108337,600.041687 453.199066,597.428772 449.258911,597.283936 
	C445.128662,597.132141 444.692780,599.627136 444.999817,603.716431 
z"/>
<path fill="#C5D5D4" opacity="1.000000" stroke="none" 
	d="
M421.457947,622.912842 
	C414.544067,622.932312 408.075348,622.932312 401.151611,622.932312 
	C401.151611,611.618774 401.151611,600.600708 401.151611,589.108826 
	C407.555420,589.108826 414.017578,588.665283 420.388977,589.235718 
	C426.547424,589.787109 428.283142,595.615295 424.894623,603.226318 
	C431.049805,606.193848 429.924713,611.684692 429.359802,616.922363 
	C428.886719,621.309265 425.537872,622.334229 421.457947,622.912842 
M416.313171,614.966003 
	C417.234039,613.628601 418.154938,612.291199 419.075806,610.953796 
	C416.637543,610.158386 414.199310,609.362915 411.378906,608.442749 
	C411.378906,611.376343 411.378906,612.939758 411.378906,614.772339 
	C412.888794,614.845825 414.157990,614.907532 416.313171,614.966003 
M411.140350,600.342773 
	C412.738922,600.828308 414.321472,601.428406 415.955933,601.657654 
	C416.165955,601.687073 417.185852,599.541016 416.865814,598.848572 
	C416.456604,597.963135 414.924866,596.883301 414.135284,597.057678 
	C413.010712,597.306030 412.121033,598.618103 411.140350,600.342773 
z"/>
<path fill="#C6D6D5" opacity="1.000000" stroke="none" 
	d="
M675.828552,607.995483 
	C675.828552,601.534546 675.828552,595.572693 675.828552,589.122681 
	C682.963806,589.122681 689.737610,588.801758 696.462341,589.237671 
	C700.806091,589.519226 702.866272,593.218628 702.440613,598.597900 
	C702.300598,600.367065 701.724182,602.101685 701.317566,603.990479 
	C705.856812,607.988464 706.878723,613.027527 704.716248,623.131409 
	C701.643127,622.810974 697.240662,623.605713 695.621887,621.843445 
	C693.874695,619.941406 694.730957,615.647827 694.433044,612.181702 
	C691.693298,612.181702 689.263000,612.181702 686.217407,612.181702 
	C686.217407,615.682129 686.217407,619.075439 686.217407,622.694092 
	C682.672668,622.694092 679.734436,622.694092 675.828552,622.694092 
	C675.828552,617.969116 675.828552,613.231873 675.828552,607.995483 
M692.037842,599.616394 
	C690.454651,598.632202 688.871521,597.647949 686.515503,596.183289 
	C686.515503,599.564697 686.515503,601.274963 686.515503,603.698914 
	C688.868164,602.760864 692.131897,605.017395 692.037842,599.616394 
z"/>
<path fill="#C3D4D3" opacity="1.000000" stroke="none" 
	d="
M640.672058,615.888245 
	C639.485229,606.773987 643.053406,599.179321 646.144409,591.508179 
	C646.561035,590.474121 647.826477,589.129333 648.768677,589.071838 
	C653.073242,588.809204 657.407776,588.844666 661.718750,589.046265 
	C662.570312,589.086121 663.713135,590.162659 664.133545,591.042175 
	C668.858765,600.927063 671.576355,611.184509 669.430847,622.248352 
	C660.514038,624.296265 659.820068,623.831116 658.702332,614.809265 
	C656.337036,614.809265 653.926331,614.809265 651.201294,614.809265 
	C651.037170,617.232910 650.872620,619.661865 650.679749,622.510498 
	C647.526489,622.510498 644.482056,622.510498 640.671936,622.510498 
	C640.671936,620.518188 640.671936,618.431213 640.672058,615.888245 
M657.385620,601.435303 
	C656.716064,600.174622 656.046448,598.914001 654.648010,596.281128 
	C653.252747,600.404419 652.392456,602.946899 651.424988,605.806091 
	C654.067261,605.806091 656.138794,605.806091 658.416321,605.806091 
	C658.160278,604.453613 657.949219,603.338318 657.385620,601.435303 
z"/>
<path fill="#C6D6D5" opacity="1.000000" stroke="none" 
	d="
M469.697266,597.042358 
	C469.697235,594.243713 469.697235,591.938354 469.697235,589.112549 
	C476.818024,589.112549 483.586365,588.787598 490.304260,589.229431 
	C494.615845,589.512939 496.533203,593.040161 496.235107,598.616272 
	C496.139954,600.395630 495.639191,602.153198 495.270844,604.218933 
	C502.148712,608.932190 498.491180,616.049377 499.192444,622.687988 
	C495.542145,622.687988 492.471985,622.687988 488.993408,622.687988 
	C488.782013,619.085449 488.582916,615.692749 488.375305,612.154785 
	C485.485321,612.154785 483.055420,612.154785 480.235474,612.154785 
	C480.235474,615.639709 480.235474,618.913147 480.235474,622.558716 
	C476.791901,622.558716 473.729645,622.558716 469.697266,622.558716 
	C469.697266,614.321594 469.697266,605.928589 469.697266,597.042358 
M481.752899,603.369690 
	C484.335266,603.636597 486.479675,603.295898 485.967255,599.894287 
	C485.388123,596.049805 482.737946,597.387146 479.748260,597.506042 
	C480.217377,599.663391 480.601410,601.429443 481.752899,603.369690 
z"/>
<path fill="#C4D5D4" opacity="1.000000" stroke="none" 
	d="
M567.920715,599.995422 
	C568.016479,591.272461 570.337524,588.974854 578.710693,588.925232 
	C583.031494,588.899597 587.352539,588.920715 592.099243,588.920715 
	C592.099243,591.887695 592.099243,594.592041 592.099243,597.937073 
	C589.688171,597.937073 587.423096,597.937073 585.158020,597.937073 
	C583.103027,597.937073 581.048035,597.937073 578.993042,597.937073 
	C578.862183,598.404419 578.731323,598.871765 578.600464,599.339111 
	C579.362366,599.884705 580.058594,600.738892 580.898499,600.917419 
	C583.334106,601.435181 585.866638,601.512756 588.288757,602.074768 
	C591.863098,602.904114 593.976746,604.938965 594.198975,608.990356 
	C594.824097,620.387756 592.547180,622.933594 581.109802,622.936890 
	C576.973511,622.938110 572.837158,622.937073 568.314941,622.937073 
	C568.314941,619.964783 568.314941,617.390686 568.314941,613.920715 
	C570.722839,613.920715 573.299988,613.971313 575.874146,613.906311 
	C578.365295,613.843445 580.853394,613.661682 583.342834,613.532166 
	C583.404785,612.908997 583.466736,612.285767 583.528687,611.662537 
	C581.165405,611.145508 578.821716,610.500366 576.435242,610.135559 
	C569.416870,609.062683 568.070557,607.585266 567.920715,599.995422 
z"/>
<path fill="#C4D4D3" opacity="1.000000" stroke="none" 
	d="
M504.756683,594.224365 
	C507.278381,592.248596 509.520020,589.622192 512.064026,589.286316 
	C517.424438,588.578674 522.943298,589.071167 528.700684,589.071167 
	C528.700684,591.952637 528.700684,594.537659 528.700684,598.010559 
	C525.343933,598.010559 521.931519,598.112732 518.528503,597.978699 
	C515.724792,597.868347 514.565002,599.046448 514.698181,601.809692 
	C514.802246,603.968384 514.905579,606.156128 514.677917,608.295715 
	C514.192139,612.861572 515.702820,615.020020 520.959656,613.553833 
	C521.160767,611.015442 521.376770,608.289551 521.617249,605.254272 
	C525.046692,605.254272 528.258911,605.254272 532.075378,605.254272 
	C532.075378,610.317322 532.245117,615.267822 531.931335,620.187500 
	C531.869080,621.164551 529.989685,622.757507 528.886780,622.811462 
	C523.741943,623.063416 518.554932,623.154114 513.421875,622.775635 
	C506.611145,622.273499 503.932404,619.276978 503.962677,612.479248 
	C503.989227,606.522461 504.382385,600.567261 504.756683,594.224365 
z"/>
<path fill="#C5D5D4" opacity="1.000000" stroke="none" 
	d="
M550.004883,588.920837 
	C554.468018,588.920837 558.436218,588.920837 562.739502,588.920837 
	C562.739502,591.844910 562.739502,594.413208 562.739502,597.845886 
	C558.826904,597.845886 554.904236,597.755981 550.991516,597.913818 
	C550.096680,597.949890 549.236328,598.840088 548.360107,599.337280 
	C549.262146,599.985352 550.124512,600.703613 551.085999,601.246521 
	C551.465149,601.460571 552.065308,601.277283 552.564636,601.285461 
	C560.060242,601.408203 560.349915,601.798340 558.491882,609.936890 
	C556.998718,609.936890 555.380737,609.936951 553.762756,609.936951 
	C552.124939,609.936951 550.487183,609.936890 548.877075,609.936890 
	C548.726746,612.240601 548.726746,612.240601 562.756531,614.479675 
	C562.851196,615.021606 563.039001,615.641235 563.056335,616.265625 
	C563.241028,622.935486 563.233643,622.936096 556.342529,622.936768 
	C550.398865,622.937378 544.455139,622.936890 538.327515,622.936890 
	C538.142151,621.600098 537.939392,620.812317 537.937744,620.024109 
	C537.916260,609.891846 537.923523,599.759583 537.923523,588.920837 
	C541.993347,588.920837 545.751648,588.920837 550.004883,588.920837 
z"/>
<path fill="#C4D5D4" opacity="1.000000" stroke="none" 
	d="
M629.972656,598.007568 
	C621.938354,598.009766 621.898132,598.010010 621.947998,605.494690 
	C622.008240,614.531006 620.587341,613.901978 630.587463,613.919739 
	C632.211609,613.922607 633.835754,613.920105 635.407410,613.920105 
	C635.700256,614.836426 635.955811,615.283936 635.972290,615.740173 
	C636.230957,622.937012 636.223816,622.960083 628.847595,622.926941 
	C625.694641,622.912781 622.497498,623.087341 619.399231,622.635803 
	C613.720276,621.808228 611.266357,618.950073 611.100586,613.265930 
	C610.955383,608.286499 610.964050,603.295959 611.109436,598.316345 
	C611.267151,592.912170 613.820007,589.689636 619.070984,589.237305 
	C624.464844,588.772705 629.929810,589.134216 635.682739,589.134216 
	C635.682739,592.023254 635.682739,594.601929 635.682739,598.007568 
	C633.923523,598.007568 632.181458,598.007568 629.972656,598.007568 
z"/>
<path fill="#060707" opacity="1.000000" stroke="none" 
	d="
M444.999817,603.256042 
	C444.692780,599.627136 445.128662,597.132141 449.258911,597.283936 
	C453.199066,597.428772 453.108337,600.041687 453.017151,602.843323 
	C452.936249,605.329285 452.844543,607.832092 453.038696,610.305420 
	C453.284515,613.436890 451.733582,614.397949 448.928436,614.435608 
	C445.948853,614.475586 444.733917,613.158203 444.967316,610.184082 
	C445.135529,608.040527 444.999908,605.873169 444.999817,603.256042 
z"/>
<path fill="#121313" opacity="1.000000" stroke="none" 
	d="
M415.870178,614.967651 
	C414.157990,614.907532 412.888794,614.845825 411.378906,614.772339 
	C411.378906,612.939758 411.378906,611.376343 411.378906,608.442749 
	C414.199310,609.362915 416.637543,610.158386 419.075806,610.953796 
	C418.154938,612.291199 417.234039,613.628601 415.870178,614.967651 
z"/>
<path fill="#0F1010" opacity="1.000000" stroke="none" 
	d="
M411.135681,599.909302 
	C412.121033,598.618103 413.010712,597.306030 414.135284,597.057678 
	C414.924866,596.883301 416.456604,597.963135 416.865814,598.848572 
	C417.185852,599.541016 416.165955,601.687073 415.955933,601.657654 
	C414.321472,601.428406 412.738922,600.828308 411.135681,599.909302 
z"/>
<path fill="#171919" opacity="1.000000" stroke="none" 
	d="
M692.042969,600.020142 
	C692.131897,605.017395 688.868164,602.760864 686.515503,603.698914 
	C686.515503,601.274963 686.515503,599.564697 686.515503,596.183289 
	C688.871521,597.647949 690.454651,598.632202 692.042969,600.020142 
z"/>
<path fill="#0A0B0B" opacity="1.000000" stroke="none" 
	d="
M657.561890,601.829102 
	C657.949219,603.338318 658.160278,604.453613 658.416321,605.806091 
	C656.138794,605.806091 654.067261,605.806091 651.424988,605.806091 
	C652.392456,602.946899 653.252747,600.404419 654.648010,596.281128 
	C656.046448,598.914001 656.716064,600.174622 657.561890,601.829102 
z"/>
<path fill="#191B1B" opacity="1.000000" stroke="none" 
	d="
M481.369171,603.282593 
	C480.601410,601.429443 480.217377,599.663391 479.748260,597.506042 
	C482.737946,597.387146 485.388123,596.049805 485.967255,599.894287 
	C486.479675,603.295898 484.335266,603.636597 481.369171,603.282593 
z"/>
</svg>